<svg width="363" height="273" viewBox="0 0 363 273" fill="none" xmlns="http://www.w3.org/2000/svg">
<path d="M187.908 4.79604L184.306 37.511L163.199 9.13502L187.908 4.79604Z" fill="#6D4D45"/>
<path d="M329.563 52.5801C327.829 50.1817 325.572 47.5017 323.09 47.7658C321.194 47.9682 320.015 49.8473 318.942 51.5151C317.868 53.1742 316.708 54.754 315.461 56.2371C314.762 57.0644 314.016 57.8829 313.045 58.279C312.079 58.6706 310.832 58.5606 309.954 57.6981C308.332 56.1006 308.929 53.337 309.801 51.4359C311.954 46.7404 314.801 42.5378 318.209 39.0172C318.921 38.2823 319.729 37.5474 320.75 37.5122C321.484 37.4902 322.232 37.8422 322.941 38.2207C326.03 39.8885 328.828 42.3001 331.538 44.7777C338.622 51.2643 344.205 58.1161 350.849 65.2144C352.063 66.5082 356.327 75.3624 356.631 78.2184C356.921 81.0084 357.638 83.8073 358.729 86.4521C359.662 88.7052 361.558 95.4338 357.766 91.4336C354.527 88.0275 354.087 80.3396 351.298 76.4758C344.799 67.4808 336.057 61.5707 329.563 52.5801" fill="#262728"/>
<path d="M192.703 14.9581L187.907 224.043C187.907 224.043 195.666 229.544 152.502 235.894C109.339 242.244 45.3499 215.578 45.3499 215.578L32.2422 45.0102L99.0157 26.5323L192.703 14.9581" fill="#D8BFA9"/>
<path d="M335.76 117.827C336.008 110.744 335.495 103.647 334.145 96.7042C330.627 78.6327 323.377 60.4892 311.684 47.1696C290.971 23.5813 222.5 21.3224 219.554 74.8483C218.135 100.633 240.979 140.254 229.368 163.892C222.081 178.723 209.382 190.994 193.799 196.498C180.613 201.155 165.736 201.101 152.565 196.399C146.534 194.248 143.246 190.544 136.412 190.666C130.201 190.774 123.993 192.947 119.2 196.925C117.914 197.992 116.7 199.216 116.002 200.732C115.083 202.739 115.154 205.065 115.574 207.23C117.607 217.71 127.049 225.283 136.971 229.221C150.698 234.666 165.884 234.864 180.643 234.4C207.391 233.563 234.406 230.724 259.525 221.49C284.643 212.256 307.905 196.111 321.76 173.211C331.765 156.678 336.39 137.162 335.76 117.827" fill="#99AD64"/>
<path d="M183.394 57.9833L174.507 258.327L159.696 264.25L156.734 61.5858L183.394 57.9833Z" fill="#FFE5C0"/>
<path d="M23.4403 48.8162C24.8464 49.0971 90.6758 42.1394 115.713 37.2492C154.344 29.6975 192.704 14.9578 192.704 14.9578C192.704 14.9578 188.473 13.8296 185.369 11.0069C182.266 8.18424 182.266 4.23342 182.266 4.23342L32.2429 32.732C32.2429 32.732 25.7018 35.2738 23.4403 37.2492C21.1789 39.2246 18.9221 47.4256 18.9221 47.4256L23.4403 48.8162Z" fill="#EAD0B5"/>
<path d="M21.8193 47.1734C21.8193 47.1734 74.4797 43.306 134.024 50.7876C162.841 54.4106 183.394 57.9811 183.394 57.9811L172.674 70.2904L166.467 267.497C166.467 267.497 42.3371 242.664 41.7728 241.818C41.2085 240.971 14.6372 54.7423 14.6372 54.7423L21.8193 47.1734" fill="#EAD0B5"/>
<path d="M19.1457 60.7953C17.9991 59.613 18.0818 57.7222 18.3944 56.1059C19.7133 49.2777 23.766 43.1757 28.9446 38.535C30.2529 37.366 31.6989 36.1837 32.2421 34.5143C27.4987 33.0175 22.1231 35.3202 19.0063 39.1992C15.889 43.0738 14.7335 48.2105 14.6418 53.1833C14.6215 54.2904 14.6533 55.4195 15.0465 56.4513C15.4387 57.4831 16.2565 58.4085 17.3305 58.6654L19.1457 60.7953" fill="#6D4D45"/>
<path d="M27.3122 32.6278C28.328 31.9193 183.111 8.60844e-06 183.111 8.60844e-06L187.908 4.79738L25.9089 37.2446L27.3122 32.6278Z" fill="#C98F7F"/>
<path d="M9.46631 54.7433C9.46631 54.7433 35.8486 240.974 36.4128 241.82C36.9774 242.665 39.6894 246.471 39.6894 246.471L20.6147 66.418L9.46631 54.7433" fill="#6D4D45"/>
<path d="M17.3927 57.9835L178.534 70.2925L171.488 74.8528L14.6799 61.7457L17.3927 57.9835" fill="#C98F7F"/>
<path d="M14.1786 63.0203C10.2025 59.549 8.47658 54.004 10.0334 48.9573C11.5899 43.9152 16.1888 36.3229 27.3116 32.6336C33.7745 30.4886 38.0246 30.2261 40.4611 29.7321C42.0909 29.4028 46.0091 31.8949 45.2532 33.3768C39.3879 32.9185 28.5121 35.9313 22.2196 40.484C17.4538 43.9374 14.717 48.3788 15.8338 54.1553C16.6778 58.521 20.3215 61.7119 23.7876 64.4889C20.4407 64.925 16.9813 64.4755 13.8573 63.1983C14.676 62.7488 15.4956 62.2993 16.3139 61.8454L14.1786 63.0203" fill="#C98F7F"/>
<path d="M171.487 74.8527L178.533 70.2924L169 267.611L163.198 273L171.487 74.8527Z" fill="#6D4D45"/>
<path d="M12.7485 61.5861C12.7485 61.5861 38.445 246.471 39.6886 246.471C40.9318 246.471 163.198 273 163.198 273L171.488 74.8528L12.7485 61.5861Z" fill="#996D5F"/>
<path d="M57.4222 120.572L61.7159 112.172L63.6661 112.686L62.8081 121.992L57.4222 120.572ZM72.4171 103.142L63.0307 100.674L36.8201 137.584L45.8997 140.686L53.9208 128.39L61.6007 130.409L60.1557 143.719L72.9558 147.084L72.4171 103.142" fill="#6D4D45"/>
<path d="M94.0978 151.929L91.5355 139.159C91.5355 139.159 101.155 137.118 101.537 144.125C101.92 151.131 94.0978 151.929 94.0978 151.929ZM88.774 126.932L87.4303 120.085C87.4303 120.085 92.9055 119.183 93.4671 121.996C94.3907 126.621 87.5248 127.16 88.774 126.932V126.932ZM109.966 144.332C107.631 131.376 95.5584 131.88 92.1019 132.299C94.5059 131.807 100.613 129.624 98.5084 120.374C96.5082 111.581 80.4768 115.408 80.4768 115.408L87.6084 159.19C87.6084 159.19 112.384 157.745 109.966 144.332Z" fill="#6D4D45"/>
<path d="M146.733 125.771C146.733 125.771 148.656 116.487 140.915 113.164C133.702 110.071 128.476 113.846 124.344 121.483C120.211 129.123 117.147 142.584 123.955 146.61C135.954 153.707 142.902 141.463 142.455 141.342C142.008 141.217 137.975 137.079 137.701 137.2C137.428 137.321 134.893 142.636 129.828 140.073C126.261 138.27 127.742 132.993 129.449 128.291C131.404 122.902 133.123 120.283 136.182 121.241C139.242 122.199 137.713 125.745 137.713 125.745L146.733 125.771" fill="#6D4D45"/>
<path d="M44.1575 155.92C44.9443 155.528 139.376 167.293 139.376 167.293C139.376 167.293 139.769 170.481 139.376 170.481C138.982 170.481 44.1575 159.191 44.1575 159.191V155.92Z" fill="#6D4D45"/>
<path d="M44.1575 163.199C44.5509 162.612 139.551 173.432 139.551 173.432L138.392 175.991L45.3498 164.778L44.1575 163.199Z" fill="#6D4D45"/>
<path d="M300.513 134.517C304.253 134.59 308.102 132.739 309.939 129.482C309.46 132.998 308.734 136.605 306.73 139.534C304.725 142.468 301.151 144.578 297.666 143.896C294.394 143.253 291.98 140.35 290.753 137.248C289.527 134.146 289.223 130.772 288.493 127.514C289.426 131.674 296.914 134.443 300.513 134.517" fill="#262728"/>
<path d="M276.284 104.678C276.284 112.483 269.959 118.808 262.157 118.808C254.355 118.808 248.03 112.483 248.03 104.678C248.03 96.8775 254.355 90.5483 262.157 90.5483C269.959 90.5483 276.284 96.8775 276.284 104.678Z" fill="#262728"/>
<path d="M255.223 97.361C254.535 98.2455 253.911 99.2075 253.627 100.29C253.343 101.373 253.439 102.599 254.096 103.509C254.753 104.415 256.035 104.894 257.059 104.437C258.433 103.828 258.732 102.068 259.364 100.705C260.019 99.2895 261.212 98.1376 262.644 97.5293C263.101 97.3351 263.589 97.1928 263.979 96.8864C264.369 96.5801 264.641 96.0495 264.468 95.5835C264.068 94.5136 261.025 94.4057 260.008 94.4402C257.994 94.5006 256.4 95.8467 255.223 97.361" fill="white"/>
<path d="M330.027 96.7999C330.027 104.605 324.389 110.93 317.436 110.93C310.481 110.93 304.844 104.605 304.844 96.7999C304.844 88.9952 310.481 82.6702 317.436 82.6702C324.389 82.6702 330.027 88.9952 330.027 96.7999Z" fill="#262728"/>
<path d="M311.254 89.4784C310.642 90.3629 310.086 91.325 309.833 92.408C309.579 93.4952 309.665 94.7205 310.25 95.6265C310.836 96.5368 311.979 97.0114 312.889 96.5584C314.114 95.9501 314.382 94.1855 314.947 92.8221C315.529 91.4113 316.594 90.255 317.871 89.651C318.277 89.4569 318.712 89.3102 319.058 89.0039C319.407 88.6975 319.648 88.1669 319.493 87.7052C319.139 86.6353 316.426 86.5274 315.52 86.5576C313.726 86.6223 312.302 87.9684 311.254 89.4784" fill="white"/>
<path d="M285.944 93.7371C287.952 92.8656 290.205 92.4126 292.349 92.8613C296.087 93.6465 298.951 97.4259 298.694 101.235C298.668 101.619 298.606 102.025 298.368 102.327C297.696 103.186 296.348 102.646 295.364 102.176C293.617 101.343 291.63 100.946 289.721 101.261C287.811 101.581 285.996 102.651 284.97 104.294C284.604 104.881 284.339 105.533 283.917 106.076C283.495 106.624 282.859 107.077 282.168 107.03C281.408 106.978 280.797 106.318 280.557 105.593C280.317 104.872 280.371 104.087 280.427 103.324C280.556 101.581 280.16 98.7159 280.891 97.1109C281.61 95.5362 284.441 94.3842 285.944 93.7371" fill="#262728"/>
<path d="M208.284 64.5097C207.649 62.1357 206.644 59.3769 204.264 58.7672C202.443 58.2958 200.615 59.3293 198.966 60.233C197.322 61.1368 195.627 61.9454 193.893 62.6546C192.924 63.0524 191.914 63.4243 190.868 63.407C189.822 63.3854 188.723 62.8924 188.261 61.9541C187.41 60.2201 189.056 58.3304 190.611 57.1845C194.457 54.3521 198.742 52.1122 203.266 50.5728C204.212 50.2528 205.244 49.9588 206.195 50.2701C206.879 50.4906 207.429 51.0009 207.925 51.5198C210.092 53.79 211.703 56.5229 213.2 59.2774C217.119 66.4858 220.398 74.0186 223.671 81.5427C224.267 82.9135 224.873 84.3274 224.943 85.8193C225.053 88.2279 223.774 90.4462 222.915 92.6991C222.075 94.8958 221.617 97.2395 221.567 99.5962C221.525 101.598 220.588 107.289 218.697 103.034C217.085 99.4059 216.457 95.0558 215.433 91.2289C213.05 82.321 210.667 73.4175 208.284 64.5097Z" fill="#262728"/>
<path d="M90.1363 29.7165C88.4057 24.9343 85.9229 20.3141 82.1868 16.8605C79.1648 14.069 69.5355 4.2361 42.9602 1.3103C32.9259 0.203868 22.5274 0.717726 13.2217 4.63422C9.77755 6.08323 6.45332 7.99054 3.93168 10.7497C1.40958 13.5088 -0.243286 17.2031 0.0293358 20.9344C0.07377 21.5501 0.177916 22.1844 0.50747 22.7121C1.29942 23.976 3.14945 24.1658 4.52136 23.5825C5.89419 22.9992 6.92959 21.8557 8.0136 20.828C15.7641 13.5042 27.4531 11.6524 37.9646 13.4348C41.8433 14.0968 45.7067 15.2217 49.0064 17.3652C57.012 22.564 60.4316 36.6467 60.7417 46.188L93.6832 47.1926C93.2347 42.864 91.6165 33.8135 90.1363 29.7165" fill="#99AD64"/>
<path d="M70.2951 46.4812C70.3006 46.1241 70.2969 45.7624 70.2896 45.4052C70.085 35.6301 67.733 25.3742 60.9777 18.3049C57.0176 14.1614 51.7523 11.3777 46.1969 9.97662C40.641 8.57102 34.8012 8.50235 29.1268 9.29901C19.8291 10.6085 10.6275 14.4178 4.27189 21.3314C3.47355 22.1967 2.68574 23.1399 1.61182 23.6252C2.49805 24.0189 3.62965 23.9778 4.54838 23.584C5.92122 23.0025 6.95715 21.8579 8.04068 20.8323C15.7911 13.5112 27.4802 11.657 37.9923 13.4426C41.8705 14.0973 45.7345 15.2282 49.0332 17.3709C51.9675 19.2756 54.2513 22.357 56.026 25.9877C59.0945 32.2649 60.5721 40.1445 60.7685 46.1928L70.2951 46.4812Z" fill="#8F9E5E"/>
<path d="M90.1355 29.72C89.7396 28.6252 89.2709 27.4633 88.7906 26.3997C88.5864 26.7438 88.3278 27.155 88.0932 27.4812C85.9701 30.4439 82.8314 32.5219 79.5797 34.1619C73.5069 37.2275 66.7828 38.9881 59.988 39.3188C60.3178 41.3566 60.6149 43.363 60.7136 45.2042C63.217 45.2444 65.6502 44.9628 68.1419 44.6679C74.5614 43.9038 81.0286 42.8983 87.0048 40.4316C88.7665 39.7032 90.551 38.8005 92.1822 37.7906C91.5589 34.6624 90.8351 31.655 90.1355 29.72" fill="#879659"/>
<path d="M39.1999 0.982151C37.2713 0.852627 35.3367 0.787847 33.4053 0.801724C33.8918 2.30975 34.2012 3.89642 34.3978 5.45071C34.71 7.92554 34.7049 10.5993 33.9746 12.94C35.2821 13.0464 36.683 13.2175 37.965 13.435C38.3471 13.4997 38.6472 13.5506 39.0283 13.6246C39.5412 12.0009 39.8099 10.3171 39.7614 8.60555C39.6911 6.11684 39.0838 3.4246 39.1999 0.982151" fill="#879659"/>
<path d="M17.4265 15.0656C17.5509 11.2332 16.6805 7.34555 14.8489 3.98758C14.2829 4.19947 13.7091 4.43438 13.1514 4.6693C11.3926 5.41091 9.67064 6.27688 8.06567 7.30868C10.1022 8.2069 11.7785 10.3673 12.2326 12.6428C12.5619 14.2918 12.4652 15.9731 12.193 17.6359C13.8427 16.6133 15.5991 15.7474 17.4265 15.0656" fill="#879659"/>
<path d="M72.6652 12.4068C73.0154 11.7081 73.2779 11.0691 73.5784 10.329C70.8067 8.7018 67.3414 7.05157 62.8972 5.53465C62.9804 6.41262 62.9547 7.14811 62.8214 8.02609C62.3168 11.3541 60.273 14.3144 57.6464 16.4197C55.9051 17.8126 53.8576 18.8468 51.7766 19.6604C53.3714 21.3658 54.7906 23.4666 55.9248 25.7787C58.1111 24.8088 60.2082 23.5355 62.2212 22.2576C66.3096 19.6513 70.4919 16.7369 72.6652 12.4068" fill="#879659"/>
<path d="M180.641 234.994C207.388 234.157 234.404 231.314 259.522 222.081C284.64 212.849 307.902 196.7 321.758 173.799C331.761 157.271 336.39 137.752 335.76 118.415C335.833 116.288 335.838 114.157 335.773 112.03C335.229 111.365 334.557 110.886 333.698 110.792C335.596 131.777 329.626 153.383 317.225 170.416C305.573 186.419 288.691 198.124 270.433 205.76C252.175 213.396 232.519 217.167 212.853 219.381C207.336 220.002 201.774 220.438 196.219 220.248C191.401 220.079 186.392 219.523 181.825 217.892C179.731 217.146 178.07 216.02 176.439 214.79L175.534 235.119C177.24 235.089 178.943 235.046 180.641 234.994" fill="#8F9E5E"/>
<path d="M311.436 147.835C297.211 152.175 282.01 153.776 267.355 151.239C258.26 149.664 249.412 146.454 241.532 141.626C237.873 139.387 234.61 136.393 231.247 133.524C231.906 137.2 232.372 140.807 232.572 144.288C243.522 152.084 256.936 156.045 270.373 156.843C284.364 157.676 298.39 155.221 311.832 151.256C318.976 149.146 325.994 146.609 332.831 143.658C333.051 143.563 333.4 143.438 333.62 143.339C334.237 140.444 334.69 137.493 335.057 134.551C328.996 140.996 320.084 145.194 311.436 147.835" fill="#879659"/>
<path d="M207.131 210.096C204.49 204.699 202.76 198.659 202.331 192.67C200.313 193.779 198.205 194.78 196.061 195.643C197.549 204.401 200.254 212.991 204.277 220.925C206.391 225.097 209.314 229.61 212.746 232.742C216.273 232.332 219.943 231.815 223.444 231.258C217.132 225.153 210.977 217.948 207.131 210.096Z" fill="#879659"/>
<path d="M224.017 172.954C221.758 176.198 219.22 179.222 216.438 182.014C220.828 189.478 226.551 196.221 233.256 201.705C240.816 207.887 253.928 215.347 273.361 216.179C275.864 214.976 278.411 213.595 280.838 212.24C250.758 212.085 227.655 195.194 224.017 172.954" fill="#879659"/>
<path d="M335.79 117.401C335.807 116.612 335.82 115.822 335.82 115.033C335.855 108.885 335.316 102.737 334.142 96.7094C332.788 89.7417 330.877 82.7653 328.371 76.0564C328.97 75.4136 329.371 74.5335 329.169 73.6835C328.936 72.7171 327.978 72.0656 327.003 71.8844C326.904 71.8672 326.801 71.8499 326.701 71.8413C326.028 70.2363 325.317 68.6529 324.575 67.0911C325.761 66.9228 326.973 66.8366 328.207 66.8366C342.455 66.8366 354.05 78.4337 354.05 92.6884C354.05 104.303 346.35 114.153 335.79 117.401" fill="#DADADB"/>
<path d="M328.206 118.536C313.954 118.536 302.36 106.939 302.36 92.6886C302.36 79.6678 312.035 68.8645 324.574 67.0913C325.316 68.6531 326.028 70.2365 326.701 71.8415C326.533 71.8242 326.369 71.8155 326.201 71.8155C325.485 71.8155 324.76 71.9623 324.052 72.109C318.147 73.3299 313.683 75.8625 310.547 81.1951C309.553 82.9812 308.853 84.9184 308.434 86.9203C306.213 89.4658 304.844 92.9561 304.844 96.8002C304.844 104.605 310.481 110.93 317.435 110.93C324.389 110.93 330.027 104.605 330.027 96.8002C330.027 90.3847 326.214 84.9658 320.994 83.2444C322.029 81.0182 323.707 79.0896 325.795 77.804C326.61 77.3035 327.49 76.8893 328.189 76.2378C328.25 76.1817 328.31 76.1213 328.37 76.0566C330.877 82.7655 332.787 89.7419 334.142 96.7096C335.315 102.737 335.854 108.885 335.82 115.033C335.82 114.032 335.803 113.031 335.772 112.03C335.229 111.366 334.556 110.887 333.698 110.792C333.909 113.147 334.025 115.507 334.043 117.872C332.166 118.307 330.212 118.536 328.206 118.536" fill="#8F9F6A"/>
<path d="M317.436 110.93C310.481 110.93 304.844 104.605 304.844 96.7999C304.844 92.9558 306.213 89.4655 308.434 86.92C307.968 89.1462 307.849 91.4501 308.058 93.7152C308.244 95.7213 308.706 97.7707 309.885 99.4058C310.931 100.855 312.643 101.921 314.403 101.921C314.628 101.921 314.852 101.904 315.076 101.865C317.906 101.421 319.58 98.3359 319.882 95.484C320.184 92.6322 319.567 89.7373 319.929 86.8941C320.093 85.63 320.455 84.3961 320.994 83.2441C326.214 84.9656 330.027 90.3844 330.027 96.7999C330.027 104.605 324.389 110.93 317.436 110.93" fill="#3B3D3E"/>
<path d="M334.044 117.871C334.026 115.507 333.91 113.147 333.698 110.791C334.557 110.886 335.23 111.365 335.773 112.03C335.804 113.031 335.821 114.032 335.821 115.033C335.821 115.822 335.808 116.612 335.791 117.401C335.217 117.578 334.635 117.733 334.044 117.871Z" fill="#889466"/>
<path d="M328.207 66.8366C313.955 66.8366 302.36 78.4336 302.36 92.6884C302.36 106.939 313.955 118.536 328.207 118.536C342.455 118.536 354.05 106.939 354.05 92.6884C354.05 78.4336 342.455 66.8366 328.207 66.8366ZM328.207 126.643C309.485 126.643 294.254 111.409 294.254 92.6884C294.254 73.9639 309.485 58.7298 328.207 58.7298C346.928 58.7298 362.155 73.9639 362.155 92.6884C362.155 111.409 346.928 126.643 328.207 126.643Z" fill="#262728"/>
<path d="M328.371 76.0562C327.84 74.6411 327.284 73.2302 326.701 71.841C326.801 71.8496 326.904 71.8669 327.003 71.8841C327.978 72.0653 328.936 72.7168 329.169 73.6833C329.372 74.5332 328.97 75.4134 328.371 76.0562Z" fill="#F2F2F2"/>
<path d="M308.434 86.9202C308.854 84.9183 309.553 82.9811 310.547 81.1949C313.683 75.8623 318.148 73.3297 324.053 72.1088C324.76 71.9621 325.485 71.8154 326.201 71.8154C326.369 71.8154 326.533 71.824 326.701 71.8413C327.284 73.2305 327.84 74.6413 328.371 76.0565C328.31 76.1212 328.25 76.1815 328.19 76.2376C327.491 76.8891 326.611 77.3033 325.796 77.8038C323.708 79.0895 322.03 81.018 320.995 83.2443C319.864 82.8689 318.67 82.6705 317.436 82.6705C313.907 82.6705 310.72 84.297 308.434 86.9202" fill="#D7DCC9"/>
<path d="M314.403 101.921C312.643 101.921 310.93 100.855 309.885 99.4058C308.705 97.7706 308.243 95.7213 308.057 93.7151C307.848 91.45 307.967 89.1461 308.434 86.9199C310.719 84.2968 313.907 82.6702 317.435 82.6702C318.669 82.6702 319.864 82.8687 320.994 83.244C320.455 84.396 320.092 85.6299 319.928 86.894C319.566 89.7372 320.183 92.6322 319.881 95.484C319.579 98.3358 317.905 101.421 315.076 101.865C314.851 101.904 314.627 101.921 314.403 101.921V101.921ZM315.805 86.5532C315.697 86.5532 315.602 86.5575 315.52 86.5575C313.726 86.6222 312.302 87.9683 311.254 89.4783C310.641 90.3628 310.085 91.3249 309.832 92.4078C309.579 93.4951 309.664 94.7203 310.25 95.6264C310.68 96.2951 311.418 96.7308 312.138 96.7308C312.397 96.7308 312.651 96.6791 312.889 96.5583C314.114 95.9499 314.381 94.1854 314.946 92.822C315.529 91.4112 316.594 90.2549 317.871 89.6509C318.276 89.4568 318.712 89.3101 319.057 89.0038C319.406 88.6974 319.648 88.1668 319.493 87.7051C319.169 86.7301 316.896 86.5532 315.805 86.5532" fill="#B8B9B9"/>
<path d="M312.139 96.7311C311.418 96.7311 310.681 96.2954 310.25 95.6267C309.665 94.7207 309.579 93.4954 309.833 92.4082C310.086 91.3253 310.642 90.3632 311.254 89.4787C312.302 87.9687 313.726 86.6226 315.52 86.5579C315.602 86.5579 315.697 86.5536 315.805 86.5536C316.896 86.5536 319.17 86.7305 319.493 87.7055C319.648 88.1672 319.407 88.6978 319.058 89.0041C318.712 89.3105 318.277 89.4571 317.871 89.6513C316.594 90.2553 315.529 91.4115 314.947 92.8223C314.382 94.1857 314.114 95.9502 312.889 96.5586C312.652 96.6794 312.397 96.7311 312.139 96.7311" fill="#F2F2F2"/>
<path d="M252.851 132.881C238.6 132.881 227.006 121.284 227.006 107.034C227.006 92.7789 238.6 81.1818 252.851 81.1818C267.103 81.1818 278.696 92.7789 278.696 107.034C278.696 121.284 267.103 132.881 252.851 132.881ZM262.157 90.5483C254.355 90.5483 248.03 96.8776 248.03 104.678C248.03 112.483 254.355 118.808 262.157 118.808C269.959 118.808 276.284 112.483 276.284 104.678C276.284 96.8776 269.959 90.5483 262.157 90.5483ZM250.846 86.1606C250.129 86.1606 249.405 86.3073 248.698 86.454C242.792 87.675 238.328 90.2075 235.193 95.5401C233.093 99.3152 232.307 103.759 232.704 108.06C232.889 110.067 233.352 112.116 234.531 113.751C235.578 115.201 237.288 116.266 239.051 116.266C239.275 116.266 239.498 116.249 239.722 116.215C242.553 115.766 244.227 112.681 244.529 109.829C244.831 106.978 244.213 104.083 244.576 101.239C245.048 97.542 247.266 94.1034 250.442 92.149C251.256 91.6485 252.137 91.2343 252.836 90.5828C253.535 89.9314 254.037 88.9607 253.815 88.0287C253.584 87.0623 252.626 86.4108 251.649 86.2296C251.383 86.1822 251.115 86.1606 250.846 86.1606" fill="#8F9F6A"/>
<path d="M262.157 118.808C254.355 118.808 248.03 112.483 248.03 104.678C248.03 96.8775 254.355 90.5483 262.157 90.5483C269.959 90.5483 276.284 96.8775 276.284 104.678C276.284 112.483 269.959 118.808 262.157 118.808ZM260.328 94.4356C260.208 94.4356 260.1 94.4356 260.008 94.4399C257.994 94.5003 256.4 95.8464 255.223 97.3608C254.535 98.2452 253.911 99.2073 253.627 100.29C253.343 101.373 253.439 102.598 254.096 103.509C254.58 104.178 255.406 104.613 256.216 104.613C256.504 104.613 256.79 104.557 257.059 104.436C258.433 103.828 258.732 102.068 259.364 100.704C260.019 99.2893 261.212 98.1373 262.644 97.529C263.101 97.3348 263.589 97.1925 263.978 96.8862C264.368 96.5798 264.641 96.0492 264.468 95.5832C264.104 94.6082 261.551 94.4356 260.328 94.4356" fill="#3B3D3E"/>
<path d="M256.216 104.613C255.406 104.613 254.581 104.178 254.096 103.509C253.439 102.598 253.343 101.373 253.627 100.29C253.911 99.2073 254.535 98.2452 255.223 97.3607C256.4 95.8463 257.994 94.5002 260.008 94.4398C260.1 94.4355 260.208 94.4355 260.328 94.4355C261.551 94.4355 264.104 94.6081 264.468 95.5831C264.641 96.0491 264.369 96.5798 263.979 96.8861C263.589 97.1924 263.101 97.3348 262.644 97.5289C261.212 98.1373 260.019 99.2893 259.364 100.704C258.732 102.068 258.433 103.828 257.059 104.436C256.79 104.557 256.504 104.613 256.216 104.613" fill="#DADADB"/>
<path d="M252.852 81.182C238.601 81.182 227.007 92.7791 227.007 107.034C227.007 121.284 238.601 132.881 252.852 132.881C267.103 132.881 278.697 121.284 278.697 107.034C278.697 92.7791 267.103 81.182 252.852 81.182ZM252.852 140.988C234.132 140.988 218.901 125.758 218.901 107.034C218.901 88.3094 234.132 73.0753 252.852 73.0753C271.573 73.0753 286.802 88.3094 286.802 107.034C286.802 125.758 271.573 140.988 252.852 140.988Z" fill="#262728"/>
<path d="M239.052 116.266C237.288 116.266 235.579 115.201 234.531 113.751C233.352 112.116 232.89 110.067 232.704 108.061C232.307 103.759 233.094 99.3153 235.194 95.5402C238.328 90.2076 242.792 87.6751 248.698 86.4541C249.406 86.3074 250.129 86.1607 250.846 86.1607C251.115 86.1607 251.383 86.1823 251.649 86.2298C252.626 86.411 253.584 87.0624 253.815 88.0289C254.037 88.9608 253.536 89.9315 252.837 90.5829C252.137 91.2344 251.256 91.6486 250.442 92.1491C247.267 94.1035 245.048 97.542 244.576 101.239C244.213 104.083 244.831 106.978 244.529 109.829C244.227 112.681 242.553 115.766 239.722 116.215C239.499 116.249 239.275 116.266 239.052 116.266" fill="#D7DCC9"/>
<path d="M5.3469 15.3939C4.61265 15.3939 4.02367 14.988 3.90698 13.8393C3.69713 11.7635 7.19912 10.3288 8.59198 9.7107C9.16296 9.45698 9.73533 9.20325 10.3091 8.95415C11.0355 9.73836 11.6162 10.6887 11.9704 11.6943C10.5134 12.5339 9.09885 13.4518 7.73735 14.439C7.03032 14.9511 6.1102 15.3939 5.3469 15.3939ZM16.8431 9.23557C16.6323 8.34065 16.3657 7.46418 16.0429 6.60616C19.299 5.37449 22.6179 4.33655 26.0304 3.66767C28.5814 3.16947 31.1951 2.88346 33.7991 2.88346C33.853 2.88346 33.907 2.88346 33.961 2.88346C34.1192 3.6077 34.2446 4.33656 34.3447 5.0608C28.3259 5.39755 22.3652 6.81836 16.8431 9.23557V9.23557ZM44.8543 5.59589C43.0611 5.30528 41.2523 5.12075 39.4393 5.0331C39.3738 4.4657 39.3106 3.89833 39.2635 3.33093C40.9654 3.62155 42.6391 4.05978 44.2626 4.6687C44.6731 4.82093 45.1583 5.2776 44.8543 5.59589Z" fill="#BAC796"/>
<path d="M34.3444 5.05597C34.2443 4.33178 34.1189 3.60761 33.9607 2.88343C35.7414 2.89265 37.5181 3.03565 39.2633 3.33086C39.3103 3.89361 39.3735 4.46555 39.439 5.03291C38.6692 4.996 37.8995 4.98218 37.1288 4.98218C36.2008 4.98218 35.2715 5.00523 34.3444 5.05597" fill="#AEB88E"/>
<path d="M11.9707 11.6942C11.6164 10.689 11.0358 9.73876 10.3093 8.95382C12.2033 8.12756 14.112 7.33343 16.0432 6.60357C16.3659 7.46195 16.6325 8.3387 16.8436 9.23381C15.1758 9.96367 13.548 10.7854 11.9707 11.6942" fill="#AEB88E"/>
<path d="M233.326 64.1651C229.319 64.1651 227.417 59.7076 229.076 55.8731C231.498 50.2758 236.026 46.185 241.191 43.1147C250.439 37.6191 261.194 34.7123 271.948 34.7123C274.416 34.7123 276.885 34.8669 279.334 35.1761C280.123 35.2733 280.949 35.4058 281.578 35.8962C282.205 36.3821 282.535 37.3452 282.076 37.9946C281.732 38.485 281.089 38.6352 280.502 38.7324C277.839 39.1741 275.139 39.1918 272.435 39.1918C272.324 39.1918 272.213 39.1918 272.102 39.1918C271.999 39.1918 271.897 39.1918 271.794 39.1918C270.037 39.1918 268.278 39.1962 266.529 39.3199C257.539 39.9605 248.356 44.2633 243.99 52.1489C242.817 54.2694 242.018 56.5799 240.843 58.7004C239.667 60.8209 238.013 62.8089 235.75 63.6792C234.876 64.0149 234.066 64.1651 233.326 64.1651" fill="#BAC796"/>
</svg>
