<svg width="345" height="213" viewBox="0 0 345 213" fill="none" xmlns="http://www.w3.org/2000/svg">
<path d="M322.347 57.0569C321.279 54.615 319.799 51.8234 317.569 51.5811C315.861 51.397 314.469 52.8293 313.195 54.0915C311.936 55.3485 310.611 56.5156 309.227 57.5849C308.461 58.1821 307.644 58.7594 306.716 58.9221C305.789 59.0856 304.706 58.7491 304.103 57.819C302.976 56.1033 304.037 53.7822 305.163 52.277C307.961 48.5517 311.266 45.3912 314.94 42.9442C315.706 42.4316 316.56 41.9368 317.466 42.1032C318.113 42.2232 318.71 42.6747 319.262 43.1467C321.662 45.2056 323.665 47.8632 325.579 50.5642C330.578 57.6313 334.193 64.7351 338.691 72.255C339.509 73.6261 341.577 82.2403 341.298 84.8132C341.025 87.3258 341.114 89.9289 341.577 92.4686C341.968 94.6299 342.351 100.919 339.774 96.6734C337.572 93.0526 338.655 86.1962 336.932 82.2595C332.927 73.0967 326.352 66.2204 322.347 57.0569" fill="#262728"/>
<path d="M43.302 150.307C38.1609 153.859 32.8397 157.489 26.7285 158.793C20.6173 160.096 13.4489 158.502 9.92852 153.337C8.33101 150.997 6.97169 147.692 4.14265 147.652C2.16754 147.625 0.552595 149.486 0.238902 151.437C-0.0747909 153.389 0.610675 155.36 1.44719 157.148C7.12852 169.197 21.053 176.778 34.2514 175.006C46.1485 173.408 56.2273 165.234 67.9501 162.637C71.9235 161.758 76.0538 161.526 79.8762 160.138C83.6986 158.751 87.3294 155.838 88.0323 151.833C89.1651 145.432 82.5078 140.264 76.1874 138.727C61.775 135.216 54.2231 142.765 43.302 150.307" fill="#99AD64"/>
<path d="M34.0912 175.005C45.9915 173.407 56.0684 165.233 67.7927 162.636C67.9176 162.608 68.0483 162.582 68.1733 162.556C67.3553 160.166 66.134 157.929 64.481 155.997C62.5213 153.7 59.8402 151.795 56.8239 151.625C54.2223 151.479 51.706 152.64 49.5929 154.172C47.4798 155.702 45.6677 157.608 43.6455 159.251C37.9254 163.89 30.4103 166.315 23.0713 165.687C15.7323 165.06 8.67163 161.333 4.17848 155.502C2.75271 153.658 1.57687 151.571 0.957708 149.34C0.50896 149.959 0.196541 150.691 0.0772538 151.436C-0.235165 153.388 0.446465 155.359 1.28716 157.148C6.96751 169.196 20.89 176.777 34.0912 175.005" fill="#8F9E5E"/>
<path d="M8.18059 166.2C8.3516 163.449 9.44182 160.67 11.2481 158.591C11.8948 157.851 12.6055 157.188 13.3644 156.588C12.0658 155.723 10.9275 154.641 10.035 153.324C9.51128 152.555 9.00893 151.683 8.47452 150.855C6.40635 153.754 4.49317 157.035 3.38159 160.429C4.739 162.54 6.35825 164.475 8.18059 166.2Z" fill="#879659"/>
<path d="M40.3826 152.358C40.6419 152.929 40.935 153.489 41.2225 154.03C43.1675 157.669 45.2309 161.329 48.2301 164.16C49.927 165.763 51.9847 167.074 54.189 167.812C56.506 166.728 58.8344 165.672 61.2021 164.754C61.1852 164.705 61.174 164.655 61.1571 164.607C58.9077 157.456 55.993 150.513 52.4639 143.9C49.5605 145.842 46.6347 148.067 43.41 150.294C42.4065 150.985 41.403 151.679 40.3826 152.358" fill="#879659"/>
<path d="M36.042 174.718C32.8014 169.437 31.4415 162.97 32.5217 156.871C30.6958 157.696 28.8041 158.361 26.8301 158.781C25.5141 159.063 24.1433 159.2 22.7779 159.205C22.4215 161.296 22.438 163.49 22.7396 165.572C23.2057 168.87 24.2968 172.137 26.0899 174.924C28.8205 175.321 31.6006 175.364 34.3531 174.994C34.9179 174.918 35.4827 174.823 36.042 174.718Z" fill="#879659"/>
<path d="M175.312 207.111C175.857 206.013 187.535 184.295 187.535 184.295L179.987 3.00893L154.427 41.2444L175.312 207.111Z" fill="#D8BFA9"/>
<path d="M32.8191 16.4088L179.997 3.00636L166.359 30.6523L183.011 207.707C183.011 207.707 69.2065 199.484 68.6063 198.791C68.0061 198.097 23.28 34.5471 23.28 34.5471L28.8477 26.9713L32.8191 16.4088" fill="#EAD0B5"/>
<path d="M27.9904 39.4548C26.8325 38.5218 26.6953 36.8258 26.7941 35.3439C27.2057 29.0925 30.1415 23.1758 34.2517 18.4447C35.2888 17.2482 36.4467 16.0297 36.743 14.4765C32.3365 13.6751 27.7874 16.3371 25.4332 20.1571C23.0845 23.9716 22.629 28.6973 23.1065 33.154C23.2107 34.1474 23.3698 35.1518 23.8363 36.03C24.3082 36.9082 25.1368 37.6491 26.1301 37.7534L27.9904 39.4548" fill="#6D4D45"/>
<path d="M38.4137 12.7517C39.3955 12.2122 181.494 1.27389e-05 181.494 1.27389e-05L178.823 5.34441L30.304 18.6852L32.0127 14.6844L38.4137 12.7517Z" fill="#D66950"/>
<path d="M18.6519 35.1295C18.6519 35.1295 63.216 198.702 63.8118 199.396C64.4134 200.089 67.2678 203.187 67.2678 203.187L29.939 44.3188L18.6519 35.1295Z" fill="#AA3431"/>
<path d="M26.1059 37.1363L169.89 30.0766L165.811 34.8644L24.1074 40.8087L26.1059 37.1363" fill="#D66950"/>
<path d="M23.7985 42.0035C19.852 39.3497 17.6836 34.5772 18.5086 29.894C19.3335 25.2108 19.6179 20.8007 28.9101 15.7718C36.1231 11.8635 44.4064 12.382 47.8234 12.0085C49.3117 11.8468 50.8781 15.5209 50.3709 16.9314C45.0753 17.1823 33.5645 16.1621 28.4474 20.9457C24.5789 24.564 22.6279 28.8514 24.2779 33.8915C25.5265 37.6938 29.1442 40.1358 32.5556 42.2321C29.6124 43.0015 26.4686 42.9904 23.531 42.1987C24.211 41.7025 24.8911 41.2063 25.5711 40.7101L23.7985 42.0035" fill="#D66950"/>
<path d="M22.3577 40.8811C22.3577 40.8811 66.1566 203.325 67.2715 203.185C68.38 203.045 180.709 213 180.709 213L165.808 34.8634L22.3577 40.8811" fill="#D8453D"/>
<path d="M165.812 34.8644L169.888 30.0769L183.41 208.917L180.708 213L165.812 34.8644" fill="#AA3431"/>
<path d="M178.828 5.34404L185.614 192.201L189.74 187.761L181.495 0.000349443L178.828 5.34404" fill="#AA3431"/>
<path d="M103.706 99.756C99.5216 108.617 99.7721 118.995 101.914 128.557C102.86 132.777 104.163 136.943 106.186 140.764C108.466 145.062 111.61 148.839 114.961 152.366C118.368 155.948 122.12 159.383 126.705 161.221C134.284 164.261 143.341 162.326 149.773 157.296C156.212 152.267 160.177 144.514 161.692 136.486C163.214 128.458 162.457 120.145 160.759 112.154C159.331 105.458 157.095 98.646 152.347 93.7151C139.175 80.0389 112.042 82.0836 103.706 99.756Z" fill="#AA3431"/>
<path d="M112.07 95.059C110.432 94.775 108.363 94.8084 106.664 95.0135C105.384 96.5474 104.256 98.2597 103.364 100.152C100.045 107.181 99.6329 115.549 100.725 123.308C101.01 125.331 101.514 126.921 101.956 128.899C102.903 133.119 104.201 137.286 106.227 141.107C108.502 145.405 111.772 149.106 115.121 152.632C115.176 152.694 115.236 152.755 115.297 152.816C117.73 151.846 119.884 150.515 121.776 148.739C128.165 142.738 130.804 133.615 131.004 124.849C131.149 118.276 130.015 111.533 126.696 105.859C123.572 100.532 118.258 96.1312 112.07 95.059" fill="#892929"/>
<path d="M268.079 29.7016C252.275 29.7968 235.571 34.9979 227.125 48.3602C219.579 60.2856 219.215 75.2336 215.127 88.7376C212.142 98.5637 207.014 107.86 199.555 114.917C192.104 121.975 182.226 126.668 171.964 127.016C157.163 127.516 143.414 119.279 128.678 117.753C119.171 116.769 109.381 118.687 100.949 123.185C100.877 123.225 100.797 123.268 100.724 123.31C101.022 126.197 101.828 130.49 103.607 135.467C107.275 145.75 113.848 151.541 116.782 154.228C129.492 152.282 141.504 160.518 152.783 166.891C160.228 171.099 168.086 174.582 176.22 177.234C184.957 180.086 194.166 180.764 203.267 182.144C244.671 188.423 282.328 167.09 297.624 151.212C316.442 131.683 326.101 112.042 325.941 89.9914C325.796 69.7631 310.769 29.4452 268.079 29.7016" fill="#99AD64"/>
<path d="M315.569 115.102C311.712 123.073 307.549 130.963 302.101 137.941C287.624 156.473 264.692 167.279 241.345 170.037C217.991 172.794 194.245 168.086 172.213 159.89C160.511 155.54 149.114 150.19 136.925 147.527C128.862 145.767 120.341 145.265 112.242 147.056C111.711 147.173 110.84 147.408 110.346 147.544C112.859 150.698 115.292 152.86 116.789 154.226C129.494 152.28 141.886 160.422 153.16 166.796C160.605 171.004 168.458 174.488 176.594 177.139C185.339 179.991 194.55 180.67 203.645 182.049C245.042 188.329 282.706 166.995 298.004 151.116C316.564 131.85 326.211 112.475 326.312 90.7843C323.007 99.0073 319.426 107.122 315.569 115.102" fill="#8F9E5E"/>
<path d="M171.487 172.672C167.142 162.201 164.809 150.528 167.269 139.462C168.255 135.037 170.114 130.744 172.688 126.988C172.442 127.002 172.189 127.014 171.936 127.023C165.277 127.249 158.839 125.705 152.42 123.801C152.332 124.255 152.231 124.701 152.136 125.133C148.658 140.451 152.522 156.686 159.851 170.615C164.151 172.709 168.559 174.574 173.061 176.174C172.499 175.016 171.974 173.844 171.487 172.672" fill="#879659"/>
<path d="M232.527 182.304C223.156 176.837 215.07 169.177 209.311 159.98C200.943 146.619 197.633 130.243 199.813 114.649C199.719 114.74 199.626 114.835 199.525 114.926C196.114 118.161 192.181 120.898 187.941 122.948C187.419 142.691 195.037 162.615 208.863 176.763C211.144 179.103 213.598 181.298 216.227 183.254C221.785 183.365 227.236 183.019 232.527 182.304" fill="#879659"/>
<path d="M251.181 142.634C242.011 138.382 233.28 132.871 226.525 125.361C219.5 117.559 214.869 107.895 211.598 97.8941C209.764 101.816 207.533 105.547 204.899 108.962C214.621 134.396 237.6 154.371 264.104 160.985C270.18 162.5 276.56 163.26 282.905 163.182C288.35 159.568 292.946 155.837 296.5 152.327C281.035 152.821 265.28 149.178 251.181 142.634" fill="#879659"/>
<path d="M135.239 118.854C133.061 118.374 130.865 117.991 128.65 117.762C124.367 117.318 120.029 117.469 115.777 118.176C114.841 122.114 114.633 126.066 114.969 130.341C115.648 138.725 118.359 146.94 122.905 154.023C128.589 154.508 134.175 156.723 139.565 159.48C138.207 157.383 136.579 155.389 135.148 153.356C130.192 146.33 127.163 137.431 129.127 129.058C130.045 125.166 132.266 121.534 135.239 118.854" fill="#879659"/>
<path d="M281.118 123.682C284.394 124.462 288.141 123.568 290.381 121.047C289.289 124.056 287.958 127.092 285.633 129.291C283.309 131.49 279.759 132.668 276.815 131.4C274.054 130.209 272.483 127.191 271.997 124.224C271.511 121.257 271.884 118.225 271.863 115.219C271.891 119.061 277.956 122.932 281.118 123.682" fill="#262728"/>
<path d="M265.47 92.7721C263.98 99.6457 257.197 104.01 250.325 102.519C243.452 101.029 239.092 94.2482 240.582 87.374C242.072 80.5004 248.855 76.1368 255.72 77.6267C262.593 79.1181 266.96 85.8985 265.47 92.7721" fill="#262728"/>
<path d="M248.313 82.3014C247.54 82.9484 246.809 83.6775 246.35 84.5775C245.892 85.4775 245.742 86.5766 246.145 87.5013C246.556 88.4259 247.595 89.0921 248.58 88.8869C249.906 88.6126 250.508 87.1183 251.322 86.037C252.17 84.9188 253.441 84.1302 254.816 83.8683C255.26 83.7848 255.718 83.7513 256.122 83.5564C256.518 83.3608 256.86 82.9457 256.799 82.5032C256.648 81.4841 253.988 80.8091 253.086 80.6422C251.301 80.3126 249.639 81.1934 248.313 82.3014" fill="white"/>
<path d="M314.316 96.0982C312.826 102.972 306.649 107.468 300.529 106.139C294.402 104.811 290.644 98.1606 292.135 91.2873C293.625 84.4133 299.795 79.9178 305.922 81.247C312.049 82.5756 315.807 89.2242 314.316 96.0982" fill="#262728"/>
<path d="M299.179 86.0643C298.472 86.7253 297.793 87.4671 297.364 88.3731C296.936 89.2792 296.779 90.3761 297.114 91.2872C297.464 92.199 298.379 92.8378 299.265 92.612C300.465 92.309 301.037 90.8084 301.794 89.7137C302.573 88.5818 303.73 87.7686 304.973 87.4771C305.366 87.3849 305.781 87.3406 306.145 87.1369C306.51 86.934 306.824 86.5131 306.774 86.0743C306.667 85.0632 304.295 84.4508 303.495 84.3057C301.901 84.0178 300.387 84.9324 299.179 86.0643" fill="white"/>
<path d="M243.736 110.683C242.083 110.683 240.402 110.508 238.722 110.144C225.989 107.382 217.87 94.7707 220.629 82.0324C223.029 70.9751 232.843 63.4007 243.722 63.4007C245.375 63.4007 247.055 63.5757 248.736 63.9402C261.468 66.7023 269.588 79.314 266.828 92.0515C264.428 103.11 254.615 110.684 243.736 110.683ZM253.017 77.3335C247.152 77.3335 241.875 81.4078 240.582 87.372C239.095 94.2464 243.459 101.027 250.334 102.517C251.24 102.715 252.146 102.809 253.038 102.809C258.903 102.809 264.179 98.7344 265.473 92.7702C266.967 85.8965 262.596 79.1161 255.728 77.6247C254.822 77.4276 253.909 77.3335 253.017 77.3335ZM243.701 67.8444C238.327 67.8444 233.943 69.2686 230.173 73.3485C227.566 76.3146 226.003 80.1343 225.526 84.0551C225.298 85.8854 225.318 87.8043 226.058 89.4949C226.791 91.1841 228.375 92.5973 230.215 92.7017C230.291 92.7059 230.367 92.708 230.443 92.708C232.954 92.7087 234.952 90.3464 235.748 87.9288C236.571 85.4399 236.585 82.7332 237.456 80.2616C238.597 77.0478 241.246 74.4061 244.462 73.2765C245.285 72.9867 246.149 72.7868 246.903 72.3399C247.65 71.8931 248.286 71.1204 248.273 70.246C248.252 69.3378 247.519 68.5672 246.682 68.2185C245.845 67.8685 244.911 67.8554 244.005 67.8464C243.902 67.845 243.798 67.8444 243.701 67.8444" fill="#8F9F6A"/>
<path d="M253.036 102.811C252.146 102.811 251.235 102.717 250.325 102.519C243.452 101.029 239.092 94.2482 240.582 87.3739C241.872 81.4099 247.151 77.3354 253.009 77.3354C253.906 77.3354 254.816 77.43 255.72 77.6267C262.593 79.118 266.96 85.8985 265.47 92.7721C264.18 98.7368 258.901 102.811 253.036 102.811V102.811ZM252.319 80.5714C250.828 80.5714 249.448 81.3533 248.317 82.3009C247.544 82.9482 246.806 83.677 246.35 84.5769C245.895 85.4768 245.743 86.5762 246.15 87.5009C246.502 88.3118 247.351 88.924 248.213 88.924C248.337 88.924 248.462 88.9115 248.579 88.8867C249.911 88.612 250.511 87.1179 251.325 86.0365C252.167 84.9185 253.443 84.129 254.816 83.8681C255.258 83.7846 255.713 83.7508 256.121 83.5555C256.521 83.3602 256.859 82.9447 256.797 82.5031C256.652 81.4837 253.988 80.8081 253.091 80.6418C252.829 80.5942 252.574 80.5714 252.319 80.5714" fill="#3B3D3E"/>
<path d="M248.217 88.9246C247.349 88.9246 246.501 88.3125 246.145 87.5014C245.742 86.5767 245.892 85.4776 246.35 84.5776C246.809 83.6776 247.54 82.9485 248.313 82.3015C249.448 81.3542 250.829 80.5725 252.32 80.5725C252.573 80.5725 252.826 80.5944 253.086 80.6423C253.988 80.8092 256.648 81.4842 256.799 82.5033C256.86 82.9457 256.518 83.3609 256.122 83.5565C255.718 83.7514 255.26 83.7849 254.816 83.8684C253.441 84.1303 252.17 84.9189 251.322 86.0371C250.508 87.1184 249.906 88.6127 248.58 88.887C248.457 88.9123 248.333 88.9246 248.217 88.9246" fill="#DADADB"/>
<path d="M248.739 63.9416C236.006 61.1792 223.398 69.2951 220.632 82.0337C217.867 94.7723 225.982 107.383 238.722 110.144C251.456 112.908 264.064 104.792 266.829 92.0531C269.588 79.3152 261.472 66.7034 248.739 63.9416ZM237.148 117.39C220.416 113.762 209.759 97.1962 213.388 80.462C217.017 63.7292 233.581 53.0674 250.306 56.6966C267.038 60.3243 277.696 76.8906 274.073 93.6241C270.444 110.358 253.88 121.019 237.148 117.39Z" fill="#262728"/>
<path d="M230.443 92.709C230.368 92.709 230.294 92.707 230.219 92.7029C228.373 92.5977 226.792 91.1847 226.053 89.4955C225.32 87.805 225.3 85.8864 225.524 84.056C226.005 80.1354 227.566 76.3159 230.171 73.3495C233.937 69.2694 238.327 67.8455 243.701 67.8455C243.803 67.8455 243.905 67.8455 244.007 67.8469C244.909 67.8557 245.846 67.8692 246.687 68.2188C247.522 68.5683 248.254 69.3386 248.268 70.2473C248.288 71.1214 247.65 71.8937 246.904 72.3403C246.151 72.7875 245.282 72.9871 244.461 73.2768C241.245 74.4068 238.592 77.0488 237.452 80.2623C236.584 82.7333 236.57 85.4405 235.749 87.9298C234.948 90.3466 232.953 92.709 230.443 92.709" fill="#D7DCC9"/>
<path d="M276.065 84.9785C278.003 84.595 280.075 84.6266 281.879 85.4315C285.018 86.8347 286.823 90.7107 285.868 94.0193C285.77 94.3529 285.643 94.6963 285.376 94.9176C284.618 95.5454 283.53 94.8143 282.75 94.2131C281.374 93.1449 279.703 92.4152 277.954 92.3288C276.213 92.2417 274.415 92.8408 273.193 94.091C272.765 94.5369 272.4 95.0594 271.93 95.4619C271.452 95.8636 270.799 96.1389 270.202 95.9647C269.542 95.773 269.135 95.0777 269.058 94.3936C268.987 93.7096 269.184 93.029 269.381 92.3696C269.83 90.8575 270.02 88.2576 270.975 86.9864C271.908 85.7349 274.619 85.2594 276.065 84.9785" fill="#262728"/>
<path d="M213.239 44.3971C213.139 42.1847 212.781 39.562 210.796 38.5683C209.283 37.8075 207.471 38.3691 205.852 38.8504C204.233 39.3296 202.58 39.718 200.921 40.0134C199.992 40.178 199.029 40.3127 198.114 40.0957C197.191 39.8793 196.322 39.2361 196.096 38.3207C195.671 36.63 197.483 35.2818 199.076 34.5682C202.998 32.8052 207.206 31.6515 211.487 31.1609C212.376 31.058 213.345 30.9983 214.121 31.453C214.685 31.7803 215.07 32.3338 215.402 32.8868C216.882 35.2977 217.778 38.0127 218.575 40.7256C220.645 47.8237 222.092 55.0876 223.546 62.3403C223.804 63.6633 224.07 65.0214 223.844 66.351C223.486 68.4938 221.933 70.2017 220.745 72.0212C219.583 73.7976 218.734 75.775 218.243 77.8395C217.825 79.5946 215.907 84.4303 215.057 80.3208C214.327 76.8165 214.606 72.8643 214.44 69.2983C214.035 60.9982 213.644 52.6973 213.239 44.3971" fill="#262728"/>
<path d="M322.446 113.631C324.971 106.25 326.278 98.6706 326.315 90.7845C326.19 91.0936 326.065 91.4034 325.94 91.7132C325.948 91.1398 325.948 90.5657 325.948 89.9895C325.911 84.573 324.803 77.7184 322.38 70.5863C332.605 74.8009 338.69 85.8827 336.26 97.0643C334.587 104.792 329.236 110.793 322.446 113.631Z" fill="#DADADB"/>
<path d="M313.503 115.428C311.876 115.428 310.221 115.256 308.558 114.897C296.009 112.174 288.014 99.7437 290.737 87.1886C293.097 76.2894 302.77 68.8237 313.496 68.8237C315.122 68.8237 316.778 68.9965 318.441 69.356C319.806 69.6538 321.128 70.0678 322.384 70.5857C324.802 77.7181 325.906 84.5731 325.95 89.9892C325.95 90.5652 325.95 91.1397 325.935 91.7128C322.74 99.618 319.283 107.422 315.573 115.101C315.529 115.182 315.485 115.264 315.449 115.346C314.803 115.4 314.156 115.428 313.503 115.428V115.428ZM297.186 83.2693C294.739 85.0888 292.872 87.8989 292.139 91.2865C290.643 98.1596 294.404 104.809 300.533 106.137C301.252 106.295 301.978 106.371 302.697 106.371C308.049 106.371 313.002 102.159 314.324 96.0976C315.544 90.4454 313.22 84.945 308.95 82.4297C310.286 80.6691 312.13 79.2906 314.222 78.5578C315.035 78.2723 315.885 78.0755 316.626 77.6346C317.366 77.1937 317.991 76.4326 317.976 75.5711C317.962 74.6756 317.243 73.9166 316.415 73.5723C315.587 73.228 314.665 73.2142 313.772 73.2055C313.67 73.2048 313.568 73.2041 313.474 73.2041C308.173 73.2041 303.852 74.6073 300.141 78.6289C298.921 80.0133 297.934 81.5865 297.186 83.2693" fill="#8F9F6A"/>
<path d="M315.452 115.347C315.488 115.265 315.525 115.183 315.568 115.102C319.28 107.423 322.738 99.6184 325.934 91.7129C326.065 91.4034 326.189 91.0939 326.312 90.7844C326.276 98.6703 324.975 106.25 322.447 113.631C320.239 114.552 317.878 115.141 315.452 115.347" fill="#889466"/>
<path d="M302.693 106.371C301.973 106.371 301.253 106.296 300.526 106.139C294.401 104.81 290.643 98.1604 292.133 91.2872C292.868 87.8992 294.739 85.0893 297.179 83.2701C296.344 85.1412 295.804 87.1483 295.552 89.1828C295.329 90.987 295.351 92.8782 296.078 94.5442C296.805 96.2101 298.367 97.6024 300.181 97.7054C300.253 97.7097 300.325 97.7119 300.404 97.7119C302.88 97.7119 304.845 95.3836 305.63 93.0013C306.443 90.5478 306.45 87.879 307.314 85.4435C307.703 84.3607 308.257 83.3442 308.948 82.4306C313.216 84.9461 315.541 90.4456 314.318 96.0978C313 102.16 308.041 106.371 302.693 106.371" fill="#3B3D3E"/>
<path d="M318.435 69.3575C305.878 66.6349 293.454 74.6348 290.734 87.1904C288.007 99.7453 296.004 112.175 308.561 114.898C321.11 117.621 333.542 109.621 336.261 97.0657C338.981 84.51 330.984 72.0808 318.435 69.3575ZM307.009 122.04C290.52 118.463 280.01 102.135 283.587 85.6418C287.164 69.1476 303.491 58.6396 319.979 62.2159C336.468 65.793 346.978 82.1208 343.401 98.6143C339.824 115.108 323.497 125.617 307.009 122.04Z" fill="#262728"/>
<path d="M297.178 83.2718C297.928 81.5887 298.916 80.016 300.135 78.6316C303.843 74.6096 308.163 73.2064 313.465 73.2064C313.566 73.2064 313.667 73.2071 313.768 73.2078C314.662 73.2165 315.585 73.2302 316.408 73.5743C317.237 73.9192 317.951 74.6781 317.973 75.5734C317.987 76.4348 317.36 77.1959 316.624 77.6367C315.881 78.0775 315.023 78.2744 314.215 78.5601C312.13 79.2931 310.284 80.6717 308.942 82.432C308.019 81.8881 307.009 81.4841 305.92 81.2482C305.192 81.0909 304.47 81.0152 303.749 81.0152C301.39 81.0152 299.111 81.8354 297.178 83.2718" fill="#D7DCC9"/>
<path d="M300.398 97.7136C300.327 97.7136 300.248 97.7115 300.177 97.7072C298.359 97.6034 296.798 96.2117 296.075 94.5458C295.345 92.88 295.331 90.9886 295.553 89.1846C295.796 87.1493 296.347 85.1427 297.178 83.2714C299.11 81.8353 301.393 81.0149 303.755 81.0149C304.471 81.0149 305.194 81.0908 305.917 81.2483C307.012 81.4846 308.021 81.8883 308.944 82.4324C308.25 83.3459 307.692 84.3624 307.313 85.4448C306.447 87.881 306.439 90.5491 305.631 93.0031C304.843 95.3856 302.875 97.7136 300.398 97.7136V97.7136ZM302.889 84.2536C301.522 84.2536 300.234 85.0762 299.175 86.0655C298.466 86.727 297.793 87.4686 297.364 88.3749C296.934 89.2805 296.777 90.378 297.113 91.2886C297.414 92.0753 298.137 92.6588 298.895 92.6588C299.017 92.6588 299.139 92.6444 299.268 92.6137C300.463 92.3101 301.035 90.8097 301.787 89.7151C302.567 88.5833 303.727 87.77 304.965 87.4786C305.366 87.3863 305.774 87.3419 306.139 87.1379C306.504 86.9353 306.819 86.5143 306.776 86.0755C306.661 85.0647 304.292 84.4526 303.49 84.3066C303.29 84.2708 303.09 84.2536 302.889 84.2536" fill="#B8B9B9"/>
<path d="M298.9 92.6577C298.136 92.6577 297.414 92.0738 297.114 91.2871C296.779 90.376 296.936 89.2791 297.364 88.373C297.793 87.4669 298.472 86.7252 299.179 86.0642C300.237 85.0752 301.523 84.252 302.894 84.252C303.094 84.252 303.294 84.2691 303.495 84.3056C304.295 84.4506 306.667 85.063 306.774 86.0742C306.824 86.5129 306.51 86.9338 306.145 87.1368C305.781 87.3404 305.366 87.3847 304.973 87.4769C303.73 87.7685 302.573 88.5817 301.794 89.7136C301.037 90.8083 300.465 92.3089 299.265 92.6119C299.143 92.6426 299.022 92.6577 298.9 92.6577" fill="#F2F2F2"/>
<path d="M244.087 45.8947C243.956 45.8947 243.825 45.8829 243.693 45.8594C240.915 45.3444 241.44 41.2885 242.442 39.4392C244.398 35.8044 249.824 34.3913 253.501 33.4138C257.8 32.2711 262.217 31.5591 266.654 31.2922C266.73 31.2874 266.813 31.2846 266.903 31.2846C267.802 31.2846 268.873 31.5742 268.88 32.4342C268.894 33.1387 268.133 33.5659 267.47 33.8134C263.15 35.4366 258.485 36.1846 254.344 38.264C251.635 39.6211 247.211 45.8953 244.087 45.8947" fill="#BBC897"/>
<path d="M176.197 141.573C173.167 141.573 170.207 140.609 167.298 139.321C167.763 137.284 168.414 135.275 169.231 133.336C171.1 133.837 172.994 134.244 174.921 134.492C176.637 134.711 178.449 134.833 179.884 135.794C181.319 136.756 182.117 138.928 181.001 140.244C180.433 140.907 179.546 141.186 178.691 141.346C177.849 141.501 177.026 141.573 176.197 141.573V141.573ZM151.043 132.175C144.957 130.297 138.584 129.343 132.205 129.343C131.152 129.343 130.099 129.369 129.047 129.422C129.079 129.3 129.104 129.178 129.13 129.057C129.481 127.564 130.023 126.108 130.731 124.731C131.305 124.782 131.873 124.835 132.447 124.89C138.884 125.5 145.34 126.23 151.604 127.781C151.356 129.24 151.171 130.707 151.043 132.175V132.175ZM111.982 132.158C111.369 132.158 110.763 132.085 110.164 131.904C108.569 131.42 106.687 129.442 107.574 127.71C108.441 126.015 112.346 125.375 113.966 125.049C114.259 124.989 114.559 124.934 114.859 124.882C114.782 126.656 114.827 128.467 114.974 130.34C115.012 130.792 115.05 131.243 115.101 131.695C114.068 131.95 113.015 132.158 111.982 132.158" fill="#BBC897"/>
<path d="M167.303 139.321C164.758 138.192 162.263 136.815 159.799 135.621C156.971 134.25 154.041 133.101 151.048 132.175C151.174 130.707 151.357 129.24 151.603 127.781C152.416 127.981 153.216 128.194 154.016 128.422C159.132 129.884 164.103 131.964 169.231 133.335C168.412 135.275 167.763 137.284 167.303 139.321" fill="#AFB990"/>
<path d="M115.099 131.696C115.051 131.245 115.009 130.793 114.972 130.341C114.827 128.468 114.778 126.657 114.857 124.883C117.343 124.451 119.86 124.289 122.382 124.289C125.166 124.289 127.955 124.484 130.726 124.732C130.023 126.109 129.483 127.564 129.132 129.057C129.101 129.179 129.071 129.301 129.047 129.423C124.808 129.633 120.587 130.27 116.476 131.34C116.021 131.458 115.56 131.581 115.099 131.696" fill="#AFB990"/>
</svg>
