<svg width="311" height="350" viewBox="0 0 311 350" fill="none" xmlns="http://www.w3.org/2000/svg">
<g filter="url(#filter0_ddd)">
<path d="M297 259.626L279.396 255.235L284.356 268.388L297 259.626Z" fill="#D8453D"/>
<path d="M182.149 300.26C180.246 306.6 180.885 313.895 184.187 319.502C186.754 323.859 190.696 326.999 194.668 329.815C195.828 330.638 197.085 331.471 198.466 331.453C199.587 331.436 200.646 330.85 201.524 330.087C204.456 327.539 205.574 323.27 206.32 319.248C207.164 314.703 207.746 310.099 208.062 305.474C208.265 302.501 208.35 299.448 207.516 296.611C206.155 291.983 199.534 282.772 194.755 284.769C188.935 287.198 184.046 293.938 182.149 300.26" fill="#6D4D45"/>
<path d="M291.343 236.526C291.343 236.526 288.088 243.643 288.339 251.063C288.59 258.479 293.598 264.526 293.598 264.526L199.311 331.837L197.185 284.183L291.343 236.526Z" fill="#EAD0B5"/>
<path d="M23.5176 236.527C23.5176 236.527 15.434 239.249 14.4326 254.086C13.4308 268.922 20.191 280.462 20.191 280.462L195.779 336.093C195.779 336.093 185.638 306.563 186.664 305.737C187.69 304.914 198.393 281.56 198.393 281.56L195.779 270.296L43.2254 236.527H23.5176" fill="#F44B47"/>
<path d="M295.352 229.224V238.833L198.393 289.202C198.393 289.202 191.207 294.506 192.593 308.837C194.403 327.553 199.312 327.323 199.312 327.323L297 259.626V267.252L199.312 335.639C199.312 335.639 189.599 341.414 186.664 316.463C183.73 291.509 195.78 278.812 195.78 278.812L295.352 229.224Z" fill="#AA3431"/>
<path d="M115.393 202.74C117.416 202.639 295.352 229.224 295.352 229.224C295.352 229.224 197.025 278.812 195.779 278.812C194.534 278.812 23.5176 236.526 23.5176 236.526L115.393 202.74" fill="#D8453D"/>
<path d="M37.157 280.37C37.4317 280.834 37.7236 281.301 38.1241 281.639C38.6993 282.123 39.4371 282.294 40.1475 282.451C42.3075 282.932 44.4672 283.409 46.6269 283.89C43.4112 281.151 42.1849 276.491 41.4116 272.107C40.5521 267.231 40.0253 262.142 41.1801 257.34C42.3352 252.54 45.482 248.055 49.8579 246.793C46.7619 246.093 39.6635 243.441 36.6723 244.761C34.0832 245.901 33.0603 253.154 32.6604 255.838C31.4068 264.244 32.9157 273.194 37.157 280.37" fill="#F7D42B"/>
<path d="M49.2722 260.428C48.2803 268.468 49.6403 276.843 53.1034 284.012C53.4308 284.692 53.7894 285.375 54.3344 285.856C54.8508 286.309 55.4946 286.546 56.1235 286.773C58.5087 287.637 60.8938 288.501 63.279 289.362C56.1146 281.388 51.6971 269.573 54.4856 258.8C55.5508 254.687 58.1224 250.509 61.9791 249.892C60.4765 250.132 58.4731 248.822 56.7187 249.076C55.3514 249.271 54.6412 249.585 53.563 250.495C50.8392 252.795 49.7139 256.848 49.2722 260.428" fill="#F7D42B"/>
<path d="M160.748 234.264C159.603 234.79 158.4 235.763 158.726 236.892C158.914 237.543 159.562 238 160.188 238.376C162.747 239.91 165.639 240.994 168.643 241.538C171.955 242.141 175.353 242.092 178.72 242.043C197.348 241.761 215.977 241.478 234.605 241.2C239.549 241.123 244.526 241.046 249.356 240.168C251.281 239.819 253.578 238.899 253.553 237.132C253.531 235.62 251.77 234.626 250.191 234.062C243.06 231.518 235.216 231.556 227.592 231.193C216.265 230.65 204.954 229.137 193.634 229.444C187.696 229.601 181.787 230.266 176.008 231.416C173.374 231.939 170.693 232.922 167.998 233.058C165.366 233.19 163.214 233.128 160.748 234.264" fill="#AA3431"/>
<path d="M111.086 78.7492C112.167 76.3792 113.529 73.7862 115.866 73.1101C117.537 72.6291 119.325 73.2844 120.791 74.2916C122.258 75.2953 123.509 76.6337 124.93 77.7141C126.121 78.6168 127.434 79.3452 128.496 80.4256C129.559 81.506 130.362 83.0674 130.127 84.6358C129.891 86.2007 128.272 87.5007 126.953 86.8454C126.035 86.3889 125.6 85.2631 125.145 84.2768C123.991 81.7779 122.198 79.6414 120.026 78.1707C118.598 77.2052 116.666 76.564 115.317 77.6583C114.688 78.1672 114.315 78.9653 113.988 79.746C112.453 83.4125 111.451 87.3473 111.031 91.3553C110.858 93.0073 110.761 94.743 109.96 96.151C109.195 97.4998 107.898 98.3502 106.813 99.4028C104.232 101.909 102.937 105.474 101.416 108.771C100.936 109.81 98.6633 114.644 98.2835 111.803C98.0043 109.712 99.956 106.192 100.649 104.289C102.148 100.169 103.72 96.0848 105.366 92.0349C107.183 87.5599 109.091 83.1301 111.086 78.7492" fill="#262728"/>
<path d="M193.375 81.2132C192.641 78.6864 191.659 75.8912 189.445 74.8282C187.861 74.0684 186.003 74.417 184.413 75.1628C182.823 75.9052 181.398 77.0169 179.842 77.8429C178.539 78.5365 177.139 79.0314 175.938 79.9202C174.736 80.8054 173.723 82.2134 173.736 83.8027C173.748 85.392 175.165 86.9499 176.56 86.5247C177.531 86.2284 178.119 85.1898 178.708 84.2906C180.199 82.0183 182.271 80.2094 184.624 79.1255C186.17 78.4145 188.169 78.1078 189.348 79.4148C189.898 80.0247 190.154 80.8786 190.368 81.7046C191.369 85.5872 191.807 89.644 191.658 93.6764C191.597 95.3353 191.449 97.0675 192.041 98.594C192.608 100.058 193.771 101.117 194.694 102.341C196.893 105.254 197.671 108.994 198.711 112.511C199.039 113.619 200.605 118.777 201.38 116.034C201.949 114.016 200.516 110.21 200.098 108.21C199.196 103.888 198.217 99.5839 197.16 95.304C195.993 90.578 194.73 85.8764 193.375 81.2132" fill="#262728"/>
<path d="M239.348 214.3C238.778 213.673 237.93 213.478 237.13 213.356C231.148 212.467 225.142 214.245 219.143 214.991C212.639 215.799 206.011 215.384 199.633 213.767C194.429 212.446 189.214 210.202 185.54 205.95C182.888 202.879 181.203 198.951 179.977 194.94C176.125 182.33 176.546 168.205 181.144 155.898C184.378 147.244 190.852 138.312 194.155 129.686C200.611 112.824 195.329 86.2145 171.56 77.843C163.81 75.114 146.24 70.2138 130.1 81.4851C120.462 88.215 112.559 103.487 109.35 115.518C102.308 141.923 116.172 186.572 123.321 200.691C131.065 215.987 138.688 221.881 151.607 229.622C167.754 239.293 187.254 239.105 205.586 237.425C214.343 236.623 225.197 235.693 231.713 231.716C238.229 227.743 238.882 225.92 239.971 217.824C240.137 216.597 240.147 215.182 239.348 214.3" fill="#99AD64"/>
<path d="M185.376 205.95C182.724 202.883 181.039 198.952 179.814 194.944C175.96 182.334 176.382 168.208 180.98 155.902C182.818 150.984 185.702 145.976 188.457 140.985C186.223 140.305 184.098 140.445 182.455 141.996C180.876 143.487 179.934 151.165 179.243 153.501C177.856 158.192 176.469 162.883 175.081 167.574C172.792 175.318 170.474 183.453 171.793 191.465C172.902 198.195 176.677 204.347 181.946 208.003C185.428 210.421 189.527 211.725 193.644 211.816C190.541 210.463 187.66 208.595 185.376 205.95" fill="#8F9E5E"/>
<path d="M107.454 129.655C104.88 126.215 103.333 121.813 103.333 117.024C103.333 107.903 108.939 100.197 116.567 97.8309C115.648 99.4864 114.787 101.184 113.992 102.891C112.02 104.052 110.391 105.728 109.088 108.158C107.612 111.068 107.059 114.497 107.338 117.815C107.441 119.035 107.665 120.276 108.162 121.367C107.772 124.015 107.543 126.79 107.454 129.655" fill="#DADADB"/>
<path d="M121.503 136.963C115.848 136.963 110.789 134.112 107.454 129.655C107.543 126.79 107.772 124.015 108.162 121.367C108.295 121.656 108.448 121.938 108.623 122.203C109.359 123.325 110.561 124.144 111.801 124.144C111.958 124.144 112.115 124.13 112.273 124.103C114.263 123.758 115.44 121.381 115.652 119.181C115.865 116.982 115.43 114.748 115.685 112.556C116.017 109.702 117.577 107.049 119.81 105.544C120.382 105.157 121.001 104.836 121.493 104.334C121.984 103.832 122.336 103.083 122.18 102.365C122.018 101.619 121.344 101.114 120.658 100.978C120.471 100.94 120.282 100.922 120.093 100.922C119.589 100.922 119.081 101.037 118.583 101.149C116.885 101.532 115.357 102.09 113.992 102.891C114.788 101.184 115.648 99.4864 116.567 97.8309C118.137 97.343 119.793 97.0816 121.503 97.0816C131.522 97.0816 139.674 106.028 139.674 117.024C139.674 128.017 131.522 136.963 121.503 136.963" fill="#8F9F6A"/>
<path d="M121.503 97.0816C111.484 97.0816 103.333 106.028 103.333 117.024C103.333 128.017 111.484 136.963 121.503 136.963C131.522 136.963 139.673 128.017 139.673 117.024C139.673 106.028 131.522 97.0816 121.503 97.0816ZM121.503 143.216C108.341 143.216 97.6338 131.467 97.6338 117.024C97.6338 102.581 108.341 90.829 121.503 90.829C134.665 90.829 145.373 102.581 145.373 117.024C145.373 131.467 134.665 143.216 121.503 143.216" fill="#262728"/>
<path d="M108.162 121.367C107.665 120.276 107.441 119.035 107.338 117.815C107.059 114.497 107.612 111.068 109.089 108.158C110.391 105.728 112.02 104.052 113.992 102.891C112 107.171 110.416 111.524 109.35 115.518C108.854 117.383 108.46 119.338 108.162 121.367Z" fill="#F2F2F2"/>
<path d="M111.801 124.144C110.561 124.144 109.359 123.325 108.623 122.203C108.448 121.938 108.295 121.656 108.162 121.367C108.46 119.338 108.853 117.383 109.35 115.518C110.416 111.524 111.999 107.171 113.992 102.891C115.356 102.09 116.885 101.532 118.583 101.149C119.08 101.037 119.588 100.922 120.093 100.922C120.282 100.922 120.47 100.94 120.658 100.978C121.344 101.114 122.018 101.619 122.18 102.365C122.336 103.083 121.984 103.832 121.493 104.334C121.001 104.836 120.382 105.157 119.809 105.544C117.577 107.049 116.017 109.702 115.685 112.556C115.43 114.748 115.865 116.982 115.652 119.181C115.44 121.381 114.263 123.758 112.272 124.103C112.115 124.131 111.958 124.144 111.801 124.144" fill="#D7DCC9"/>
<path d="M193.39 131.564C193.66 130.937 193.916 130.313 194.155 129.686C195.199 126.96 195.937 123.974 196.338 120.854C196.308 124.803 195.228 128.477 193.39 131.564" fill="#DADADB"/>
<path d="M178.168 140.626C168.149 140.626 159.998 131.683 159.998 120.687C159.998 109.691 168.149 100.748 178.168 100.748C188.188 100.748 196.339 109.691 196.339 120.687C196.339 120.743 196.339 120.799 196.338 120.854C195.937 123.974 195.199 126.96 194.155 129.686C193.916 130.313 193.66 130.937 193.39 131.564C190.144 137.015 184.533 140.626 178.168 140.626V140.626ZM176.759 104.589C176.254 104.589 175.746 104.7 175.248 104.812C171.096 105.756 167.958 107.712 165.754 111.821C164.277 114.734 163.724 118.16 164.004 121.478C164.134 123.029 164.459 124.608 165.288 125.87C166.024 126.988 167.226 127.807 168.466 127.807C168.623 127.807 168.78 127.797 168.938 127.769C170.928 127.424 172.105 125.044 172.318 122.844C172.53 120.645 172.095 118.411 172.351 116.219C172.682 113.365 174.242 110.716 176.475 109.207C177.047 108.823 177.666 108.503 178.158 108.001C178.65 107.495 179.002 106.746 178.846 106.028C178.684 105.282 178.01 104.78 177.323 104.641C177.136 104.603 176.948 104.589 176.759 104.589" fill="#8F9F6A"/>
<path d="M178.168 100.748C168.149 100.748 159.998 109.691 159.998 120.687C159.998 131.683 168.149 140.626 178.168 140.626C188.188 140.626 196.339 131.683 196.339 120.687C196.339 109.691 188.188 100.748 178.168 100.748ZM178.168 146.879C165.006 146.879 154.299 135.13 154.299 120.687C154.299 106.244 165.006 94.4921 178.168 94.4921C191.33 94.4921 202.038 106.244 202.038 120.687C202.038 135.13 191.33 146.879 178.168 146.879Z" fill="#262728"/>
<path d="M168.466 127.807C167.226 127.807 166.024 126.988 165.288 125.87C164.459 124.608 164.134 123.029 164.003 121.478C163.724 118.16 164.277 114.734 165.753 111.821C167.958 107.711 171.096 105.756 175.248 104.812C175.746 104.7 176.254 104.589 176.759 104.589C176.948 104.589 177.136 104.603 177.323 104.641C178.01 104.78 178.684 105.282 178.846 106.028C179.002 106.746 178.649 107.495 178.158 108.001C177.666 108.503 177.047 108.823 176.474 109.207C174.242 110.716 172.682 113.365 172.35 116.219C172.095 118.411 172.53 120.645 172.317 122.844C172.105 125.044 170.928 127.424 168.937 127.769C168.78 127.797 168.623 127.807 168.466 127.807" fill="#D7DCC9"/>
<path d="M133.333 19.3921C130.685 22.3859 130.326 27.788 133.114 30.625C129.625 31.1826 126.686 34.4483 126.052 38.2542C125.417 42.06 127.029 46.1587 129.889 48.4241C132.749 50.686 136.693 51.1007 139.964 49.6544C139.26 51.9198 139.904 54.5058 141.235 56.3983C142.567 58.2908 144.503 59.5699 146.513 60.49C150.398 62.2674 154.917 62.8216 158.804 61.0441C162.69 59.2701 165.684 54.8299 165.278 50.2329C168.321 52.0034 172.091 50.93 175.186 49.2675C178.061 47.7235 180.862 45.5174 182.072 42.2657C183.351 38.8292 182.541 34.6888 180.399 31.8134C178.257 28.9416 174.946 27.2826 171.581 26.8888C174.231 26 175.877 22.7518 175.636 19.7232C175.395 16.6945 173.549 14.0074 171.202 12.3902C169.488 11.2122 167.454 10.5221 165.438 10.7103C163.422 10.8985 161.446 12.0312 160.342 13.8924C160.786 12.6098 159.87 11.2505 158.877 10.421C155.877 7.90122 151.547 7.4621 148.177 9.33368C146.879 10.0551 145.695 11.1286 145.069 12.568C144.738 13.3312 144.579 14.2095 144.655 15.0529C144.684 15.3666 145.399 17.0465 145.29 17.2138C144.891 17.8307 143.412 16.8618 142.845 16.6666C139.608 15.5583 135.697 16.7154 133.333 19.3921" fill="#F7D42B"/>
<path d="M193.179 113.553C193.179 118.104 189.819 121.792 185.674 121.792C181.529 121.792 178.168 118.104 178.168 113.553C178.168 109.005 181.529 105.317 185.674 105.317C189.819 105.317 193.179 109.005 193.179 113.553Z" fill="#262728"/>
<path d="M137.229 111.155C137.229 115.703 133.868 119.39 129.723 119.39C125.578 119.39 122.218 115.703 122.218 111.155C122.218 106.607 125.578 102.919 129.723 102.919C133.868 102.919 137.229 106.607 137.229 111.155Z" fill="#262728"/>
<path d="M146.71 118.903C148.434 118.7 150.217 118.882 151.812 119.628C153.407 120.373 154.799 121.719 155.509 123.454C155.968 120.948 156.261 118.404 156.382 115.85C156.392 115.63 156.401 115.407 156.349 115.194C156.286 114.943 156.141 114.724 155.986 114.525C154.572 112.678 152.274 111.845 150.078 111.908C147.881 111.974 145.766 112.845 143.806 113.936C143.12 114.316 142.379 114.818 142.206 115.64C142.129 116.01 142.18 116.393 142.231 116.766C142.391 117.93 142.409 119.366 142.845 120.419C144.177 120.098 145.24 119.087 146.71 118.903" fill="#262728"/>
<path d="M156.947 147.262C158.448 147.231 159.974 147.283 161.403 147.785C162.833 148.287 164.171 149.294 164.844 150.768C165.35 151.876 165.368 153.403 164.491 154.18C163.65 154.926 162.425 154.675 161.37 154.41C155.514 152.946 149.448 152.326 143.479 153.054C137.56 153.779 131.685 155.86 126.732 159.537C131.206 156.48 135.352 153.145 140.292 150.981C145.582 148.667 151.25 147.377 156.947 147.262" fill="#262728"/>
<path d="M155.013 160.708C156.967 166.107 161.814 169.721 166.898 171.342C171.981 172.959 177.363 172.889 182.656 172.931C189.129 172.976 195.608 173.206 202.042 173.98C210.511 174.998 219.721 177.538 224.586 185.213C228.135 190.81 228.615 198.286 226.902 204.842C226.172 207.64 224.993 210.432 222.899 212.22C218.238 216.2 210.754 213.973 206.306 218.235C202.678 221.714 203.187 229.04 207.254 231.873C209.387 233.361 212.059 236.46 214.585 236.498C220.479 236.596 226.379 234.47 231.713 231.716C237.048 228.966 241.743 222.606 243.838 216.559C244.917 213.45 245.307 210.087 245.284 206.758C245.21 195.93 240.694 185.335 233.526 177.89C226.358 170.442 216.689 166.114 206.845 165.319C202.606 164.977 198.36 165.263 194.112 165.549C190.808 165.769 187.503 165.992 184.199 165.919C179.75 165.821 175.31 165.183 170.987 164.03C166.636 162.865 163.271 160.732 162.705 155.602C162.515 153.884 162.293 151.789 160.685 150.956C158.871 150.022 156.419 151.186 155.331 152.852C153.862 155.1 154.13 158.268 155.013 160.708" fill="#AABC6F"/>
<path d="M213.806 176.747C213.934 176.423 214.06 176.099 214.183 175.775C215.219 173.067 216.115 170.143 216.408 167.236C214.662 166.671 212.885 166.218 211.09 165.887C210.649 168.142 210.754 170.505 210.338 172.77C210.175 173.666 209.923 174.537 209.597 175.374C211.03 175.75 212.441 176.203 213.806 176.747Z" fill="#879659"/>
<path d="M212.595 219.567C213.028 217.963 213.786 216.392 214.778 215.081C211.681 215.566 207.295 214.6 205.007 216.796C201.379 220.274 201.939 227.192 203.414 232.225C204.455 235.78 207.492 236.968 210.018 237.01C210.736 237.021 216.016 236.491 216.732 236.439C212.788 232.155 211.011 225.443 212.595 219.567Z" fill="#879659"/>
<path d="M227.824 196.209C227.925 198.446 227.752 200.711 227.333 202.907C231.356 204.089 235.765 203.709 239.537 201.761C241.293 200.851 242.898 199.61 244.287 198.125C243.76 195.755 243.032 193.438 242.121 191.207C237.829 194.131 232.867 195.881 227.824 196.209Z" fill="#879659"/>
<path d="M165.904 171C166.53 168.313 167.329 165.674 168.193 163.06C166.735 162.409 165.482 161.544 164.535 160.356C163.737 160.886 163.002 161.551 162.378 162.287C161.149 163.733 160.215 165.406 159.513 167.211C161.39 168.874 163.604 170.142 165.904 171" fill="#879659"/>
<path d="M239.733 224.376C241.126 222.439 242.308 220.333 243.197 218.218C239.448 218.546 235.56 217.144 232.508 214.663C229.931 212.565 227.902 209.784 226.336 206.699C225.595 208.832 224.522 210.829 222.895 212.22C222.485 212.568 222.053 212.868 221.604 213.133C222.958 217.266 225.767 220.821 229.335 222.822C232.509 224.606 236.239 225.136 239.733 224.376Z" fill="#879659"/>
<path d="M233.522 177.89C232.454 176.778 231.33 175.743 230.159 174.771C229.712 175.45 229.294 176.155 228.883 176.848C227.36 179.403 225.763 181.954 223.884 184.195C224.124 184.526 224.359 184.861 224.582 185.213C225.465 186.607 226.158 188.116 226.674 189.698C230.012 186.879 232.731 183.181 234.564 179.019C234.222 178.636 233.876 178.256 233.522 177.89" fill="#879659"/>
<path d="M175.62 165.061C175.039 167.494 174.765 170.139 174.325 172.697C176.773 172.892 179.244 172.91 181.702 172.924C182.053 170.571 182.598 168.233 182.96 165.877C180.501 165.765 178.048 165.493 175.62 165.061" fill="#879659"/>
<path d="M191.09 173.122C192.952 173.203 194.814 173.311 196.672 173.454C197.056 170.777 197.221 168.062 197.162 165.354C195.042 165.476 192.921 165.636 190.8 165.758C190.833 168.212 191.131 170.669 191.09 173.122" fill="#879659"/>
<path d="M185.099 205.403C183.521 203.433 182.304 201.151 181.328 198.742C168.984 206.514 155.292 211.697 141.207 213.921C138.227 214.391 135.137 214.715 132.16 214.381C134.537 217.179 137.066 219.556 139.868 221.766C154.319 222.107 168.32 215.154 181.157 207.553C182.446 206.79 183.748 206.013 185.099 205.403" fill="#879659"/>
<path d="M185.35 238.261C186.362 232.03 188.22 225.962 190.866 220.333C192.215 217.465 193.792 214.823 195.797 212.596C194.495 212.126 193.218 211.579 191.991 210.937C185.882 219.044 180.503 227.984 177.353 237.732C179.999 238.018 182.67 238.188 185.35 238.261" fill="#879659"/>
<path d="M113.554 173.168C114.534 176.817 115.571 180.298 116.62 183.536C135.692 189.914 156.608 187.67 176.49 184.254C176.908 184.181 177.332 184.111 177.758 184.063C177.54 182.1 177.418 180.131 177.387 178.155C174.733 178.347 172.075 178.741 169.436 179.079C150.657 181.48 130.961 180.894 113.554 173.168" fill="#879659"/>
<path d="M135.36 89.421C133.048 89.421 132.127 87.0685 133.265 84.8414C134.133 83.1406 135.248 82.5516 136.881 82.0044C142.807 80.0143 149.054 78.8851 155.228 78.4181C155.506 78.3972 155.789 78.3763 156.07 78.3763C156.598 78.3763 157.119 78.4425 157.595 78.683C158.323 79.0489 158.891 79.9586 158.655 80.7985C158.423 81.628 157.571 82.0183 156.803 82.217C155.044 82.6736 153.219 82.6771 151.421 82.8827C147.331 83.3428 143.343 84.8658 139.871 87.2811C138.639 88.142 137.411 89.1387 135.967 89.3722C135.756 89.4036 135.553 89.421 135.36 89.421" fill="#B1C189"/>
<path d="M183.606 168.846C183.565 168.846 183.524 168.846 183.485 168.843C183.138 168.825 182.792 168.808 182.445 168.787C182.517 168.407 182.589 168.03 182.658 167.651C182.799 167.654 182.94 167.658 183.081 167.661C183.664 167.675 184.489 168.215 184.088 168.679C183.968 168.818 183.785 168.846 183.606 168.846V168.846ZM175.057 167.954C173.913 167.766 172.773 167.55 171.638 167.309C170.156 166.992 168.667 166.622 167.215 166.141C167.304 165.849 167.393 165.556 167.484 165.267C168.181 165.5 168.891 165.688 169.598 165.866C171.457 166.326 173.334 166.703 175.222 166.988C175.165 167.309 175.11 167.63 175.057 167.954V167.954ZM161.539 163.374C161.23 163.155 160.927 162.925 160.631 162.684C159.029 161.377 154.159 153.379 159.156 153.347C159.16 153.347 159.164 153.347 159.168 153.347C161.139 153.347 160.299 156.114 160.575 157.658C160.868 159.283 161.566 160.826 162.564 162.074C162.501 162.144 162.439 162.217 162.378 162.287C162.082 162.635 161.802 162.998 161.539 163.374" fill="#BECC91"/>
<path d="M167.215 166.141C165.213 165.479 163.281 164.604 161.539 163.374C161.802 162.998 162.081 162.635 162.378 162.287C162.439 162.217 162.501 162.144 162.564 162.074C162.952 162.559 163.385 162.998 163.857 163.381C164.941 164.259 166.189 164.835 167.484 165.267C167.393 165.556 167.304 165.849 167.215 166.141" fill="#A4AF81"/>
<path d="M182.445 168.787C179.972 168.633 177.506 168.358 175.057 167.954C175.11 167.63 175.164 167.309 175.222 166.988C177.687 167.361 180.17 167.581 182.658 167.651C182.588 168.03 182.517 168.407 182.445 168.787" fill="#A4AF81"/>
<path d="M210.516 171.561C210.397 171.512 210.281 171.463 210.171 171.415C206.208 169.627 201.941 169.097 197.629 169.097C197.453 169.097 197.277 169.097 197.101 169.1C197.129 168.585 197.149 168.069 197.161 167.553C201.629 167.79 206.093 168.132 210.548 168.581C210.617 168.588 210.687 168.595 210.757 168.602C210.681 169.588 210.629 170.578 210.516 171.561V171.561ZM189.452 169.536C188.211 169.536 187.88 168.971 188.141 168.407C188.402 167.842 189.256 167.278 190.384 167.278C190.417 167.278 190.45 167.278 190.483 167.278C190.605 167.281 190.727 167.285 190.849 167.288C190.883 167.999 190.929 168.71 190.971 169.421C190.608 169.452 190.245 169.484 189.882 169.515C189.728 169.529 189.585 169.536 189.452 169.536" fill="#BECC91"/>
<path d="M211.985 171.889C211.513 171.889 210.988 171.746 210.516 171.561C210.629 170.578 210.681 169.588 210.756 168.602C211.399 168.672 212.054 168.78 212.589 169.17C213.182 169.599 213.56 170.495 213.231 171.185C212.983 171.704 212.518 171.889 211.985 171.889" fill="#A4AF81"/>
<path d="M190.971 169.421C190.929 168.71 190.883 167.999 190.849 167.288C192.954 167.354 195.058 167.442 197.161 167.553C197.149 168.069 197.129 168.585 197.101 169.1C195.057 169.118 193.003 169.25 190.971 169.421Z" fill="#A4AF81"/>
<path d="M142.096 28.4676L148.422 30.9282C148.422 30.9282 149.501 23.0585 154.29 23.5046C159.077 23.9542 158.75 27.7113 158.71 29.5027C158.669 31.2941 156.485 33.6745 153.184 36.9437C150.088 40.0107 149.216 47.7932 149.216 47.7932H157.08C157.08 47.7932 156.683 40.5265 159.513 37.8394C162.343 35.1523 165.882 31.4823 164.872 25.5435C163.844 19.5001 160.136 17.0116 154.299 17.0116C143.083 17.0116 142.096 28.4676 142.096 28.4676" fill="#262728"/>
<path d="M149.36 49.9298L148.927 57.6078L158.09 58.5593L157.08 49.9298H149.36" fill="#262728"/>
</g>
<defs>
<filter id="filter0_ddd" x="0.331299" y="-2.819" width="310.669" height="357.036" filterUnits="userSpaceOnUse" color-interpolation-filters="sRGB">
<feFlood flood-opacity="0" result="BackgroundImageFix"/>
<feColorMatrix in="SourceAlpha" type="matrix" values="0 0 0 0 0 0 0 0 0 0 0 0 0 0 0 0 0 0 127 0"/>
<feOffset dy="3"/>
<feGaussianBlur stdDeviation="7"/>
<feColorMatrix type="matrix" values="0 0 0 0 0 0 0 0 0 0 0 0 0 0 0 0 0 0 0.12 0"/>
<feBlend mode="normal" in2="BackgroundImageFix" result="effect1_dropShadow"/>
<feColorMatrix in="SourceAlpha" type="matrix" values="0 0 0 0 0 0 0 0 0 0 0 0 0 0 0 0 0 0 127 0"/>
<feOffset dy="8"/>
<feGaussianBlur stdDeviation="5"/>
<feColorMatrix type="matrix" values="0 0 0 0 0 0 0 0 0 0 0 0 0 0 0 0 0 0 0.14 0"/>
<feBlend mode="normal" in2="effect1_dropShadow" result="effect2_dropShadow"/>
<feColorMatrix in="SourceAlpha" type="matrix" values="0 0 0 0 0 0 0 0 0 0 0 0 0 0 0 0 0 0 127 0"/>
<feOffset dy="5"/>
<feGaussianBlur stdDeviation="2.5"/>
<feColorMatrix type="matrix" values="0 0 0 0 0 0 0 0 0 0 0 0 0 0 0 0 0 0 0.2 0"/>
<feBlend mode="normal" in2="effect2_dropShadow" result="effect3_dropShadow"/>
<feBlend mode="normal" in="SourceGraphic" in2="effect3_dropShadow" result="shape"/>
</filter>
</defs>
</svg>
