<svg width="369" height="244" viewBox="0 0 369 244" fill="none" xmlns="http://www.w3.org/2000/svg">
<path d="M32.3707 11.3029C22.8116 18.4867 17.547 28.431 12.7369 39.3761C7.39087 51.5338 7.64869 66.8522 8.74774 80.0861C10.5999 102.341 19.8536 119.282 24.7858 141.065C28.4696 157.346 31.604 177.185 36.5904 193.116C44.1346 217.18 66.0343 235.53 90.6409 241.055C115.241 246.581 141.794 240.006 162.5 225.615C183.199 211.221 198.253 189.533 206.978 165.876C207.785 163.693 208.464 161.015 206.978 159.224C205.641 157.612 203.05 157.593 201.204 158.593C199.359 159.593 198.07 161.354 196.808 163.031C183.43 180.787 177.507 196.356 156.476 210.628C150.77 214.496 135.689 224.813 115.973 219.173C110.56 217.625 104.583 214.48 98.5649 210.062C96.4754 208.529 94.5758 207.183 92.432 205.228C83.0832 196.706 79.5961 183.213 80.8037 170.622C82.0045 158.031 89.8743 142.344 96.7467 131.722C110.2 110.908 134.678 47.8947 106.916 17.0679C87.0452 -4.99268 53.117 -4.29309 32.3707 11.3029" fill="#99AD64"/>
<path d="M98.5658 210.061C96.5614 208.574 94.5324 206.904 92.4785 205.03C83.1311 196.508 79.6421 183.015 80.8484 170.423C82.0547 157.832 89.9236 142.145 96.7903 131.523C101.084 124.883 106.497 113.95 110.982 101.134C104.325 109.862 98.7019 119.963 92.4352 129.04C83.4157 142.118 75.0766 156.543 74.1858 172.408C73.2949 188.274 82.0918 205.695 97.4399 209.791C97.8172 209.89 98.1884 209.981 98.5658 210.061" fill="#8F9E5E"/>
<path d="M81.3148 183.787C80.9545 181.733 80.7264 179.649 80.6363 177.561C71.648 182.532 60.7503 184.053 50.5851 182.205C43.9565 180.999 37.652 178.455 31.8879 174.948C33.0107 179.957 34.2116 184.863 35.5445 189.502C50.7893 193.317 67.457 191.191 81.3148 183.787" fill="#879659"/>
<path d="M24.7394 140.761C37.9391 151.161 55.7224 155.242 72.7488 156.337C76.624 156.588 80.6021 156.688 84.3985 156.007C85.8577 152.01 87.65 148.001 89.5755 144.183C76.9873 148.016 63.2668 148.153 50.6423 144.4C39.1864 140.996 28.7114 134.413 20.5554 125.678C22.0873 130.519 23.5405 135.501 24.7394 140.761Z" fill="#879659"/>
<path d="M121.103 220.246C119.553 219.998 117.966 219.66 116.348 219.211C111.705 229.251 102.42 237.172 91.9543 241.272C97.9902 242.519 104.139 243.048 110.281 242.915C114.705 235.788 118.347 228.171 121.103 220.246Z" fill="#879659"/>
<path d="M65.5901 216.248C60.4682 217.157 54.9316 217.522 49.8523 216.56C53.5108 220.804 57.6755 224.63 62.2243 227.969C68.6024 226.653 74.8402 224.793 80.639 221.862C86.8281 218.735 92.5049 214.233 96.5293 208.654C95.1817 207.578 93.8159 206.418 92.4439 205.163C91.9195 204.684 91.4134 204.186 90.9195 203.676C84.889 210.628 74.9804 214.579 65.5901 216.248" fill="#879659"/>
<path d="M146.948 234.388C147.455 228.596 146.628 222.679 144.532 217.256C142.635 218.039 140.59 218.758 138.391 219.336C138.91 225.847 138.039 232.468 135.878 238.628C139.647 237.442 143.346 236.024 146.948 234.388Z" fill="#879659"/>
<path d="M196.39 163.544C192.891 168.233 189.892 172.766 186.989 177.166C189.439 177.261 191.916 177.953 194.109 179.048C196.058 180.022 197.832 181.269 199.504 182.661C201.886 178.124 204.018 173.458 205.886 168.701C203.389 167.012 200.661 165.593 197.981 164.224C197.473 163.966 196.938 163.704 196.39 163.544" fill="#879659"/>
<path d="M178.59 189.332C176.788 191.739 174.878 194.1 172.782 196.428C177.048 198.108 180.706 201.935 183.33 205.889C183.417 206.026 183.51 206.167 183.597 206.304C186.141 203.315 188.544 200.2 190.8 196.975C187.509 193.4 183.243 190.708 178.59 189.332" fill="#879659"/>
<path d="M161.15 216.617C162.45 219.169 163.342 222.018 163.48 224.858C166.724 222.546 169.829 220.052 172.797 217.397C171.773 213.838 169.869 210.476 167.472 207.639C166.54 206.536 165.516 205.487 164.38 204.585C162.082 206.536 159.567 208.46 156.783 210.362C158.51 212.237 159.987 214.343 161.15 216.617" fill="#879659"/>
<path d="M111.143 22.7158C109.786 20.9513 108.023 18.9889 106.159 19.2477C104.732 19.4449 103.895 20.8904 103.128 22.1678C102.361 23.4459 101.524 24.663 100.617 25.8072C100.116 26.4503 99.5704 27.0814 98.8538 27.4043C98.1309 27.7239 97.1924 27.6707 96.5075 27.0396C95.2519 25.8795 95.6324 23.7839 96.2412 22.3315C97.7504 18.7454 99.7923 15.5094 102.272 12.7789C102.792 12.2081 103.382 11.6341 104.149 11.5846C104.701 11.5503 105.278 11.7939 105.817 12.0634C108.182 13.2463 110.344 14.9918 112.443 16.7944C117.935 21.5063 122.304 26.5303 127.479 31.7134C128.424 32.6566 131.848 39.2199 132.146 41.3649C132.431 43.4567 133.04 45.5447 133.928 47.5141C134.683 49.1835 136.274 54.2036 133.319 51.2867C130.802 48.7997 130.288 43.0229 128.088 40.1782C122.976 33.5655 116.255 29.3286 111.143 22.7158" fill="#262728"/>
<path d="M368.132 107.405L352.433 100.743L153.22 132.516L142.576 146.743L199.454 166.214L266.619 212.689L368.132 107.405" fill="#C98F7F"/>
<path d="M263.382 210.472C263.382 210.472 360.085 107.12 360.332 106.055C360.579 104.986 360.819 79.476 360.819 79.476C360.819 79.476 325.682 85.728 324.755 86.0785C323.837 86.4282 262.07 165.783 262.07 165.783L266.732 190.164L263.382 210.472" fill="#D3BBA7"/>
<path d="M200.288 164.506C203.078 164.586 263.386 210.472 263.386 210.472L271.778 159.589C271.778 159.589 174.28 117.517 171.095 117.346C167.903 117.175 147.49 125.336 147.49 125.336L149.204 148.268L200.288 164.506" fill="#EAD0B5"/>
<path d="M219.207 27.8211L147.49 125.336C147.49 125.336 161.986 125.366 177.887 134.638C193.788 143.909 201.206 158.592 201.206 158.592C201.206 158.592 221.823 155.409 236.543 162.726C251.256 170.043 266.74 190.841 266.74 190.841L360.819 79.4762C360.819 79.4762 342.386 58.7198 325.505 52.2594C292.46 39.6071 267.458 59.7088 267.458 59.7088C267.458 59.7088 263.923 44.8624 255.162 39.4658C237.709 28.7113 219.207 27.8211 219.207 27.8211" fill="#FFE5C0"/>
<path d="M267.458 59.7087L201.206 158.592L265.393 53.4875L267.458 59.7087Z" fill="#EAD0B5"/>
<path d="M142.574 146.743L200.71 163.571L266.622 212.689L265.458 217.762L207.444 173.663C207.444 173.663 200.117 175.827 194.761 173.101C189.405 170.374 189.712 165.316 189.712 165.316L142.545 152.128L142.574 146.743" fill="#996D5F"/>
<path d="M192.076 161.897C192.076 161.897 195.057 157.821 200.17 159.342C209.487 162.121 208.366 169.633 208.366 169.633C208.366 169.633 201.331 170.632 197.78 168.594C190.548 164.437 192.076 161.897 192.076 161.897" fill="#6D4D45"/>
<path d="M266.62 212.689L368.132 107.406L366.494 114.505L265.455 217.762L266.62 212.689Z" fill="#996D5F"/>
<path d="M66.3463 51.4431C69.3115 51.5189 72.3125 53.1545 73.7145 55.7479C75.1046 58.3186 74.8242 61.3607 74.5021 64.2017C74.4603 61.4597 72.6287 58.7637 70.0393 57.6115C67.45 56.4592 64.2403 56.9193 62.1999 58.7369C61.1259 59.6952 60.3801 60.9615 59.7477 62.251C58.5187 64.7495 57.8028 67.3542 57.0809 70.0239C55.3448 66.9323 54.4737 62.3119 55.8757 59.0752C57.6715 54.9113 61.3646 51.3172 66.3463 51.4431" fill="#262728"/>
<path d="M109.038 45.2277C111.432 45.2924 113.869 46.612 115.001 48.7116C116.126 50.7955 115.896 53.2595 115.641 55.5567C115.604 53.3397 114.124 51.1531 112.028 50.2209C109.927 49.2893 107.334 49.6618 105.68 51.1301C104.81 51.91 104.213 52.9367 103.697 53.9784C102.702 56.0014 102.124 58.1084 101.539 60.272C100.128 57.7664 99.425 54.0281 100.557 51.4075C102.018 48.0343 105.002 45.1251 109.038 45.2277" fill="#262728"/>
<path d="M104.665 84.7486C104.665 84.7486 101.709 89.3653 96.2796 89.696C86.3459 90.3008 80.8237 83.3601 80.435 83.7254C80.0463 84.0908 80.4844 112.255 93.6944 111.799C108.336 111.293 104.665 84.7486 104.665 84.7486Z" fill="#262728"/>
<path d="M102.672 105.565C100.991 109.072 98.2297 111.65 93.7632 111.802C89.401 111.954 86.4315 108.98 84.4253 104.919C84.7995 104.318 85.2659 103.785 85.8303 103.356C88.1065 101.614 91.5791 102.071 93.7755 103.915C95.4872 102.26 98.3463 102.158 100.396 103.359C101.254 103.862 102.027 104.638 102.672 105.565" fill="#EF503F"/>
<path d="M57.1768 81.7772C46.5752 81.7772 37.7854 73.3273 37.4446 62.6561C37.0918 51.7685 45.6663 42.626 56.5489 42.2762C56.7642 42.2684 56.9794 42.2648 57.1947 42.2648C67.7903 42.2648 76.58 50.7148 76.9268 61.3895C77.2736 72.2771 68.7051 81.4196 57.8165 81.7659C57.6012 81.7736 57.386 81.7772 57.1768 81.7772V81.7772ZM66.098 51.4414C61.2427 51.4414 57.6491 54.9819 55.8792 59.0738C54.48 62.3099 55.353 66.9304 57.0871 70.0224C57.8106 67.3527 58.5281 64.7475 59.7539 62.2489C60.3877 60.96 61.1291 59.6934 62.2054 58.7353C63.497 57.587 65.249 56.9818 67.0248 56.9818C68.0533 56.9818 69.0937 57.1875 70.0445 57.6097C72.6336 58.7616 74.4633 61.4582 74.5111 64.1997C74.828 61.3596 75.1091 58.3166 73.7159 55.7462C72.3167 53.1524 69.315 51.5173 66.3492 51.4414C66.2655 51.4414 66.1817 51.4414 66.098 51.4414V51.4414ZM55.2693 46.1247C54.6773 46.1247 54.0854 46.2652 53.5053 46.4063C49.0267 47.4822 45.6782 49.5282 43.418 53.6775C41.8992 56.6092 41.4089 60.0241 41.8155 63.2985C42.0129 64.8313 42.4135 66.3826 43.3523 67.6039C44.1655 68.657 45.4511 69.4136 46.7606 69.4136C46.9639 69.4136 47.1731 69.395 47.3824 69.3568C49.535 68.9459 50.7369 66.5465 50.8923 64.3636C51.0597 62.1771 50.5156 59.9828 50.7249 57.7999C50.994 54.9628 52.6024 52.2852 54.9763 50.7147C55.5922 50.3117 56.2499 49.9732 56.7701 49.46C57.2903 48.9427 57.6491 48.1862 57.4518 47.4823C57.2545 46.752 56.507 46.273 55.7596 46.1629C55.5922 46.136 55.4307 46.1247 55.2693 46.1247" fill="#8F9F6A"/>
<path d="M57.0809 70.0239C55.3448 66.9323 54.4737 62.3118 55.8757 59.0752C57.6417 54.9834 61.2393 51.4431 66.0898 51.4431C66.1733 51.4431 66.2628 51.4431 66.3463 51.4431C69.3115 51.5188 72.3125 53.1545 73.7145 55.7479C75.1046 58.3186 74.8242 61.3607 74.5021 64.2017C74.4603 61.4597 72.6287 58.7637 70.0393 57.6114C69.0848 57.189 68.0467 56.9837 67.0145 56.9837C65.2486 56.9837 63.4885 57.5882 62.1999 58.7369C61.1259 59.6952 60.3801 60.9615 59.7477 62.251C58.5187 64.7495 57.8028 67.3542 57.0809 70.0239" fill="#3B3D3E"/>
<path d="M56.5494 42.2768C45.6627 42.6265 37.0929 51.7691 37.4419 62.6567C37.791 73.5443 46.9325 82.1163 57.8192 81.766C68.6999 81.4199 77.2697 72.2778 76.9207 61.3902C76.5776 50.5026 67.4361 41.927 56.5494 42.2768ZM58.0118 87.961C43.7128 88.4172 31.7067 77.1571 31.2493 62.8541C30.7919 48.5512 42.0518 36.5416 56.3508 36.0854C70.6498 35.6255 82.6559 46.8899 83.1193 61.1886C83.5767 75.4915 72.3168 87.5011 58.0118 87.961" fill="#262728"/>
<path d="M46.7598 69.4143C45.4533 69.4143 44.1643 68.6572 43.3557 67.6041C42.4124 66.3834 42.014 64.8317 41.8148 63.2992C41.4105 60.0246 41.9027 56.6099 43.4143 53.6775C45.6759 49.5285 49.0273 47.4827 53.5036 46.4068C54.0836 46.2655 54.6754 46.1249 55.2672 46.1249C55.4312 46.1249 55.5953 46.1366 55.7534 46.163C56.5034 46.2732 57.2534 46.7525 57.4526 47.4827C57.6459 48.1859 57.2885 48.9431 56.767 49.4599C56.2515 49.9733 55.5894 50.312 54.9742 50.7152C52.6013 52.2857 50.99 54.9632 50.7205 57.8001C50.5155 59.983 51.0545 62.177 50.8905 64.364C50.7323 66.5469 49.5311 68.9467 47.3809 69.3569C47.1758 69.395 46.9649 69.4143 46.7598 69.4143" fill="#D7DCC9"/>
<path d="M84.007 50.9367C85.497 50.233 87.1815 49.8376 88.8113 50.1229C91.6391 50.621 93.8892 53.3971 93.7858 56.276C93.7797 56.5649 93.7433 56.8691 93.5669 57.1051C93.0804 57.7669 92.0587 57.394 91.3046 57.0631C89.9667 56.478 88.4646 56.2267 87.0355 56.512C85.6003 56.7973 84.2624 57.6489 83.5266 58.908C83.2651 59.3599 83.0827 59.8544 82.7786 60.2765C82.4745 60.6987 82.0063 61.0564 81.4893 61.0375C80.9116 61.0144 80.4373 60.5357 80.2366 59.9955C80.0359 59.4554 80.0603 58.8623 80.0846 58.2875C80.1393 56.9719 79.7744 54.8235 80.2852 53.5985C80.7839 52.3972 82.8881 51.4574 84.007 50.9367" fill="#262728"/>
<path d="M16.2216 43.5586C15.139 42.0564 13.6955 40.3834 11.8509 40.5925C10.4475 40.7483 9.43356 41.9693 8.51702 43.0453C7.60049 44.1213 6.62667 45.1445 5.59557 46.1105C5.02274 46.6502 4.40985 47.1831 3.66517 47.449C2.92621 47.7194 2.01536 47.6655 1.44252 47.1298C0.377053 46.1369 1.03012 44.3648 1.82063 43.1404C3.76826 40.1135 6.17989 37.3863 8.95241 35.0934C9.5367 34.6104 10.1783 34.1274 10.9344 34.093C11.4729 34.0666 11.9999 34.2758 12.4868 34.5078C14.6235 35.5231 16.4909 37.0179 18.2781 38.554C22.9696 42.5778 27.3003 47.0003 31.6195 51.4195C32.41 52.2256 33.2119 53.0581 33.6644 54.0888C34.3862 55.7549 34.0826 57.66 34.0769 59.4739C34.0769 61.2461 34.3805 63.0222 34.9762 64.6917C35.4861 66.1098 36.3511 70.3691 33.8822 67.8819C31.7741 65.7603 30.1644 62.8658 28.4173 60.4474C24.3502 54.8193 20.2888 49.1867 16.2216 43.5586" fill="#262728"/>
<path d="M117.707 75.917C120.035 62.8807 120.503 49.5174 117.542 37.6977C126.284 39.3749 133.033 46.9387 133.33 56.1987C133.64 65.8352 126.86 74.0842 117.707 75.917Z" fill="#DADADB"/>
<path d="M113.864 76.2979C103.416 76.2979 94.7487 67.9691 94.4115 57.4505C94.068 46.719 102.517 37.7057 113.245 37.3634C113.458 37.3559 113.67 37.3522 113.876 37.3522C115.131 37.3522 116.349 37.4702 117.542 37.6982C120.502 49.5177 120.033 62.8813 117.704 75.9175C116.661 76.1267 115.587 76.2523 114.494 76.286C114.282 76.2941 114.07 76.2979 113.864 76.2979V76.2979ZM111.984 41.159C111.397 41.159 110.816 41.2958 110.248 41.4326C105.827 42.4937 102.53 44.5092 100.294 48.5971C98.8077 51.4914 98.3206 54.8567 98.7265 58.0857C98.9138 59.5916 99.3135 61.1243 100.238 62.326C101.043 63.3641 102.305 64.1129 103.597 64.1129C103.803 64.1129 104.003 64.0942 104.203 64.0561C106.326 63.6495 107.513 61.2873 107.675 59.1313C107.831 56.979 107.294 54.8148 107.5 52.6625C107.594 51.6969 107.837 50.75 108.225 49.86C108.668 49.7613 109.124 49.7114 109.58 49.7114C110.416 49.7114 111.253 49.8788 112.028 50.221C114.12 51.1529 115.599 53.3395 115.637 55.5568C115.899 53.2596 116.124 50.7956 115 48.7114C114.276 47.3692 113.014 46.3424 111.572 45.764C111.615 45.7341 111.653 45.7072 111.697 45.6803C112.296 45.2812 112.952 44.9502 113.458 44.4412C113.976 43.9353 114.326 43.1895 114.138 42.4937C113.938 41.7711 113.202 41.3033 112.465 41.1933C112.302 41.1702 112.14 41.159 111.984 41.159" fill="#8F9F6A"/>
<path d="M115.641 55.5565C115.604 53.3395 114.124 51.1529 112.028 50.2207C111.257 49.8786 110.418 49.7113 109.579 49.7113C109.125 49.7113 108.671 49.7611 108.223 49.8599C108.938 48.2206 110.101 46.7716 111.575 45.7641C113.017 46.3419 114.273 47.3686 115.001 48.7113C116.126 50.7953 115.896 53.2592 115.641 55.5565" fill="#3B3D3E"/>
<path d="M113.25 37.3628C102.521 37.7052 94.0698 46.7177 94.4134 57.45C94.757 68.1817 103.768 76.6315 114.497 76.2859C125.226 75.9435 133.677 66.9304 133.333 56.1987C132.989 45.4671 123.979 37.0166 113.25 37.3628V37.3628ZM114.694 82.3891C100.599 82.8416 88.7625 71.7415 88.3107 57.6441C87.8589 43.5462 98.957 31.7115 113.052 31.259C127.148 30.8064 138.984 41.9072 139.436 56.0046C139.888 70.1019 128.789 81.9366 114.694 82.3891" fill="#262728"/>
<path d="M103.597 64.113C102.306 64.113 101.046 63.3638 100.239 62.3252C99.3143 61.1239 98.9171 59.5912 98.7309 58.0851C98.3275 54.8564 98.8116 51.4911 100.301 48.5969C102.529 44.509 105.831 42.4933 110.251 41.4323C110.815 41.2951 111.399 41.1586 111.982 41.1586C112.144 41.1586 112.299 41.1698 112.467 41.1927C113.205 41.3032 113.944 41.7707 114.136 42.4933C114.329 43.1892 113.975 43.9348 113.46 44.4407C112.951 44.9498 112.299 45.2806 111.697 45.6798C111.653 45.7065 111.616 45.7332 111.573 45.7636C110.766 45.4365 109.897 45.2502 109.034 45.2279C108.966 45.2279 108.898 45.2279 108.829 45.2279C104.9 45.2279 101.989 48.0947 100.556 51.4073C99.426 54.0276 100.134 57.7661 101.536 60.2716C102.126 58.1081 102.703 56.0011 103.696 53.978C104.212 52.9363 104.807 51.9095 105.683 51.1298C106.396 50.4984 107.278 50.0688 108.227 49.8596C107.842 50.7492 107.594 51.6959 107.501 52.6625C107.296 54.8148 107.836 56.9783 107.675 59.1312C107.513 61.2872 106.328 63.6487 104.205 64.0559C104.007 64.0938 103.802 64.113 103.597 64.113" fill="#D7DCC9"/>
<path d="M101.537 60.2711C100.132 57.765 99.4266 54.0268 100.559 51.4067C101.989 48.0945 104.905 45.2268 108.829 45.2268C108.903 45.2268 108.971 45.2268 109.039 45.2268C109.9 45.2497 110.766 45.436 111.577 45.7629C110.104 46.7708 108.94 48.2201 108.229 49.8589C107.282 50.0682 106.396 50.4978 105.685 51.1293C104.812 51.9088 104.211 52.9353 103.698 53.9772C102.701 56.0005 102.125 58.1073 101.537 60.2711Z" fill="#B8B9B9"/>
<path d="M35.2443 33.6052C35.0188 33.6052 34.7932 33.5862 34.5617 33.5447C32.4662 33.1837 31 31.092 30.7685 28.9813C30.537 26.8706 31.2908 24.7753 32.2347 22.87C36.016 15.2299 47.6925 7.5061 47.6925 7.5061C51.361 5.5551 55.5104 4.56238 59.6658 4.56238C62.5923 4.56238 65.5188 5.05694 68.2791 6.05738C69.1636 6.38393 70.2203 7.24365 69.7276 8.04994C69.5554 8.33493 69.2289 8.48692 68.9262 8.61636C63.5421 10.8755 57.2675 10.9746 52.3999 14.1915C47.0336 17.7473 44.5879 24.235 40.9609 29.5513C39.5896 31.5592 37.5773 33.6052 35.2443 33.6052" fill="#ACBC81"/>
<path d="M264.739 71.5174C265.757 70.8445 276.742 65.4445 296.834 70.2172C325.205 76.9524 332.617 93.6921 332.617 93.6921L341.755 84.4897C341.755 84.4897 322.05 67.7909 304.246 63.7368C290.517 60.6148 270.341 61.8237 270.341 61.8237L264.739 71.5174" fill="#EAD0B5"/>
<path d="M257.287 78.8808C257.287 78.8808 270.362 73.3436 288.84 79.3177C307.327 85.2926 326.038 102.797 326.038 102.797L320.979 109.783C320.979 109.783 297.074 90.6353 285.478 86.8555C273.882 83.075 252.783 85.9614 252.783 85.9614L257.287 78.8808" fill="#EAD0B5"/>
<path d="M248.552 93.1363C248.552 93.1363 266.018 88.5007 281.697 95.3951C297.383 102.286 311.542 117.057 311.542 117.057L304.34 124.61C304.34 124.61 289.04 107.222 276.29 103.887C263.534 100.552 243.798 100.046 243.798 100.046L248.552 93.1363" fill="#EAD0B5"/>
<path d="M218.719 32.3053C218.719 32.3053 228.088 32.6744 241.539 39.3365C254.997 45.9957 263.939 59.8272 263.939 59.8272L260.597 64.2952C260.597 64.2952 255.14 51.5597 241.603 44.8776C228.066 38.1999 215.477 37.0897 215.477 37.0897L218.719 32.3053" fill="#EAD0B5"/>
<path d="M211.506 43.4945C211.506 43.4945 227.956 44.0649 239.213 50.5794C250.477 57.0896 257.363 69.8218 257.363 69.8218L254.316 73.7848C254.316 73.7848 247.841 60.7671 238.129 55.3218C228.416 49.8793 208.028 46.9785 208.028 46.9785L211.506 43.4945" fill="#EAD0B5"/>
<path d="M203.257 53.0157C203.257 53.0157 226.907 56.4612 234.894 62.0594C242.881 67.6534 250.657 80.4046 250.657 80.4046L248.333 83.5344C248.333 83.5344 241.938 72.5627 233.542 66.3755C225.154 60.1884 199.932 56.6211 199.932 56.6211L203.257 53.0157" fill="#EAD0B5"/>
<path d="M239.488 108.055C239.488 108.055 252.342 105.686 271.824 112.607C291.542 119.612 300.522 132.858 300.522 132.858L296.282 139.334C296.282 139.334 282.4 124.45 269.281 118.635C256.171 112.824 236.35 112.908 236.35 112.908L239.488 108.055Z" fill="#EAD0B5"/>
</svg>
